<?xml version="1.0" encoding="UTF-8"?>
<svg id="_レイヤー_2" data-name="レイヤー 2" xmlns="http://www.w3.org/2000/svg" viewBox="0 0 595.28 595.28">
  <defs>
    <style>
      .cls-1 {
        fill: #e2e1de;
      }
    </style>
  </defs>
  <g id="_レイヤー_1-2" data-name="レイヤー 1">
    <g>
      <circle class="cls-1" cx="297.64" cy="297.64" r="297.64"/>
      <g>
        <g>
          <g>
            <path d="M262.58,122.53l23.38-.05c.02,40.27.02,79.96.02,119.99,0,.4-.89,1.16-1.67,1.16l-71.08-.02-.19-27.36c0-1.21-.4-2.86-.56-3.95-.47,9.81-2.53,21.51-10.97,27.44-8.55,6.01-23,5.78-32.41,2.36-17.25-6.28-15.96-28.78-15.85-43.72l23.81.03.07,16.09c.01,2.5.94,5.09,2.97,6.53,1.82,1.29,4.03.92,5.82-.09,3.05-1.72,2.74-6.33,2.64-9.5-.35-10.91-6.31-16.06-13.81-23.19-9.02-8.57-19.41-17.7-21.07-30.53-2.09-16.22,3.8-33.56,22-35.81,7.62-.94,18.59.2,25.05,4.76,7.84,5.53,10.37,15.79,10.81,24.92l.27,5.7-24.49-.04c-.39-3.63.1-6.76-.53-9.8-.66-3.19-4.6-3.71-6.92-2.92-2.91.99-4.2,3.85-3.43,7.03,1.13,4.69,4.24,8.31,7.76,11.63,6.46,6.11,12.8,11.95,18.78,18.5s9.14,14.66,9.5,23.75c.2-.95.61-2.33.61-3.58v-79.38s48.63.04,48.63.04l-.09,23.38-23.78.07-.02,23.4,22.94.15.04,22.42-22.97.15.05,28.09,24.66-.04.04-97.61Z"/>
            <polygon points="347.67 243.51 323.7 243.64 323.7 188.88 312.09 188.88 312.03 243.63 287.78 243.55 287.78 122.52 312.05 122.49 312.12 165.92 323.69 165.82 323.71 122.44 347.66 122.51 347.67 243.51"/>
            <path d="M404.91,231.34c-6.77,12.04-21.65,15.05-34.06,12-6.7-1.64-12.53-5.28-15.95-11.49-2.83-5.14-4.94-10.92-4.95-17.1l-.06-66.17c0-3.76,1.39-7.54,2.5-10.89,5.01-15.14,23.68-18.33,37.14-15.08,10.8,2.61,17.89,10.68,19.28,21.58l.85,6.66-.15,62.06c-.02,6.64-1.5,12.87-4.62,18.42ZM383.92,219.43c.66-1.91,1.42-4.26,1.42-6.28l.02-60.66c0-2.28-.65-4.85-1.68-6.58-1.25-2.11-3.79-1.93-5.88-1.31-3.22.95-4.08,5.3-4.08,8.33l.03,59.25c0,1.67.41,3.54.63,5.04.37,2.46,1.96,4.08,3.98,4.51s4.75.06,5.56-2.31Z"/>
          </g>
          <g>
            <path d="M224.56,266.18l.36-4.85.84-9.14h23.88s-.79,7.44-.79,7.44l-2.57,23.45-.76,6.98-1.04,9.55-8.08,73.69-29.05-.04-3.98-37.82-.79-7.45c-.35-3.3-.59-6.28-1.35-9.42-.53,1.82-.69,3.17-.85,4.79l-.82,8.27-.94,9.45-.84,8.28-.84,8.25-.89,9.05-.82,6.67h-29.48s-12.97-121.01-12.97-121.01l23.6-.14,5.83,65.98c.17,2.63.29,4.75,1.08,7.32.75-2.11.71-4.14.92-6.45l1.02-11.57.75-8.34.87-9.92.52-6.21.83-9.53.85-9.54c.35-3.99.55-7.87,1.31-11.73l22.25.03.73,8.4,1.01,12,.88,10.42,1.67,20.01.87,9.98c.37,4.27.06,8.43,1.72,12.81l4.16-48.81.91-10.83Z"/>
            <path d="M334.11,383.33l-22.76-6.82,5.23-53.7c.14-1.45.63-2.74-.55-3.68l-16.52,53.81-22.51-7.06,35.24-115.1c.84-.29,1.8-.35,2.57-.11l21.53,6.63-4.34,40.47c-.58,5.44-2.08,10.45-1.14,16.12l16.41-53.24,22.3,6.81-35.47,115.87Z"/>
            <rect x="212.89" y="311.29" width="100.89" height="24.01" transform="translate(-88.31 547.38) rotate(-83.34)"/>
            <circle cx="292.54" cy="262.09" r="13.35"/>
            <path d="M409.53,382.89c-8.52,5.48-20.62,10.88-30.3,7.79-1.77-.57-3.42-1.54-5.12-2.25-3.47-2.39-6.11-5.4-8.42-9.04l-17.92-28.18,102.17-65.13,18.61,29.16c3.28,5.15,4.92,10.77,4.43,16.78-1.37,9.37-9.58,16.22-17.16,21.09l-46.29,29.77ZM445.27,331.1c2.02-1.29,3.89-3.48,3.83-5.49-.09-2.96-1.97-5.48-3.89-7.63l-65.69,41.84c.69,2.66,2.34,4.92,4.54,6.5,1.84,1.33,4.52.94,6.63-.4l54.58-34.82Z"/>
          </g>
        </g>
        <g>
          <path d="M279.15,466.95l-14.38.09-.08-47.11c0-1.96-1.92-3.24-3.2-3.32-1.66-.11-3.55,1.27-3.55,3.45l-.09,46.95h-14.8s0-71.65,0-71.65l14.77-.07.1,15.91c1.6-1.7,2.35-3.6,4.18-4.47,4.91-2.34,10.97-1.23,14.23,3.1,2.03,2.7,2.81,6.02,2.81,9.45v47.67Z"/>
          <path d="M163.33,463.36c-5.67,5.42-17.82,5.39-24.26,1.34-3.95-2.48-5.47-6.77-6.63-11.32l.04-33.05c2.31-10.92,9.72-15.51,20.42-14.66,8.54.68,15.09,7.52,15.4,16.39.35,9.88.3,19.64.01,29.57-.13,4.38-1.82,8.7-4.99,11.73ZM146.91,452.55c0,2.23,1.83,3.82,3.45,3.81,1.48-.01,3.32-1.46,3.32-3.3l-.04-33.24c0-1.84-1.93-3.08-3.14-3.05-3.01.07-3.67,3.05-3.66,5.96l.08,29.82Z"/>
          <path d="M422.39,465.87c-6.34-3.66-6.54-20.49-3.6-27.03,1.65-3.67,4.62-6,8.37-7.31l10.93-3.84c.33-2.67.82-11.05-3.04-11.08-3.35-.02-3.15,4.16-3.21,7.41l-13.95.03c-.15-6.58.98-14.43,7.86-16.94,7.55-2.76,18.69-2.55,24.15,4.51,1.68,2.17,2.73,5.13,2.73,8.08v47.33s-14.25-.01-14.25-.01l-.15-6.6c-1.49,2.72-2.73,5.59-5.88,6.66s-6.97.53-9.96-1.2ZM431.99,453.48c.16,2.07,2.07,2.92,3.49,2.67,1.2-.21,2.41-1.49,2.41-3.1v-18.16c-3.1.83-5.65,3.3-5.93,6.55-.34,3.92-.29,8.02.02,12.04Z"/>
          <path d="M354.08,463.97c-6.59,5.17-19.28,4.72-24.96-.16-5.38-4.62-5.73-12.88-5.13-19.35l14.41.02.11,8.25c.02,1.28.86,2.56,1.88,3.02,1.1.49,3.08.37,3.65-.88,1.96-4.26.45-8.83-3.03-11.64l-11.25-9.07c-4.21-3.39-5.66-7.95-5.75-13.18-.09-5.42,1.98-10.35,7.25-12.99,5.96-2.99,13.38-3.2,19.76-.82s8.65,10.04,8.65,16.88l-15,.04c-.01-2.62.02-7.12-2.95-7.42-1.09-.11-2.29.63-2.83,1.76-.95,1.99-.2,4.75,1.67,6.16l10.87,8.16c5.71,4.29,8.69,10.6,8.47,17.77-.16,5.08-1.69,10.2-5.84,13.46Z"/>
          <path d="M223.07,452.82l.14-11.83h14.61s.07,10.43.07,10.43c.03,3.9-1.08,8.03-3.83,10.88-5.99,6.22-17.03,6.83-24.55,2.74-3.05-1.66-5.16-4.35-6.18-7.79-.69-2.33-1.44-5.05-1.43-7.61l.1-26.37c.01-3.48,1.05-7.09,2.54-10.07,3.36-6.73,10.95-8.03,17.77-7.58,5.43.36,10.74,2.46,13.62,7.32.81,1.36,1.82,3.8,1.84,5.39l.09,11.82h-14.68s-.11-10.01-.11-10.01c-.02-1.77-1.21-3.31-2.78-3.41s-3.29.84-3.54,2.56c-.16,1.07-.46,2.46-.46,3.46v26.84c0,2.85.48,6.59,3.59,6.59,1.55,0,3.17-1.3,3.2-3.37Z"/>
          <path d="M385.32,456.83l-.02,9.45c-4.77,1.75-10.33,2.22-15.09-.21-1.76-.9-3.07-3.99-3.08-6.06l-.06-40.16-4.2-.36-.08-9.42c-.02-2.81,4.26-.68,4.27-2.45l.09-12.14,13.82.04.12,12.81,4.23.35-.03,10.83-4.25.27v35.44c.01.78,1.06,1.4,1.58,1.44l2.7.17Z"/>
          <path d="M188.37,466.91l-14.67.11-.03-60.85,14.62-.02.22,5.78c1.97-4.04,5.39-6.6,10.23-6.33l.04,11.89c-3.79.33-7,.7-10.4,2.35v47.07Z"/>
          <path d="M404.08,466.96l-14.39.06v-60.83s14.27-.03,14.27-.03l.37,5.54c2.53-4.24,5.9-6.63,10.47-5.82-.3,3.83-.32,7.59-.12,11.48-2.63.79-10.6.5-10.6,4.08v45.53Z"/>
          <path d="M305.59,443.2l14.05-.05c.86,8.1-.25,20.54-9.84,23.38-5.87,1.74-12.38,1.63-18.03-1.06s-7.62-11.68-7.51-17.61c.19-9.75-.42-19.25.33-28.77.46-5.83,4.5-10.57,9.75-12.24,6.3-2.01,13.09-1.83,18.92,1.26,9.24,4.9,6.08,20.43,6.57,29.4l-21.17.12v13.78c.01,1.09.65,2.96,1.19,3.95.61,1.12,2.45,1.39,3.38.92.8-.4,2.17-1.82,2.19-2.83l.18-10.24ZM305.52,430.43c-.29-3.98,1.37-14.51-3.57-14.08-4.9.43-2.94,10.07-3.28,14.08h6.85Z"/>
        </g>
      </g>
    </g>
  </g>
</svg>