<?xml version="1.0" encoding="UTF-8"?>
<svg id="_レイヤー_2" data-name="レイヤー 2" xmlns="http://www.w3.org/2000/svg" viewBox="0 0 252.75 252.75">
  <defs>
    <style>
      .cls-1 {
        fill: #cca156;
      }

      .cls-2 {
        fill: #e4b959;
      }

      .cls-3 {
        fill: #fff;
      }

      .cls-4 {
        fill: #f6e3c6;
      }

      .cls-5 {
        fill: #e7d193;
      }

      .cls-6 {
        fill: #7e7363;
      }

      .cls-7 {
        fill: #e9e6e0;
      }
    </style>
  </defs>
  <g id="_レイヤー_1-2" data-name="レイヤー 1">
    <g>
      <circle class="cls-3" cx="126.37" cy="126.37" r="126.37"/>
      <g>
        <path class="cls-2" d="M173.51,164.91c-2.18-4.97-5.63-9.78-8.68-14.25-3.02-4.43-6.57-8.45-10.15-12.43-2.32-2.59-9.36-5.48-7.62.68.48,1.71,2.14,3.85,1.91,5.61-.31,2.38-2.52,4.74-3.88,6.6-2.95,4.05-5.67,7.92-7.99,12.38-2.5,4.79-4.23,9.71-5.41,14.98-1.17,5.21-1.48,10.55-1.46,15.88,0,1.93.38,4.05-.1,5.95-.54,2.15-2.77,3.16-3.24.32-.4-2.43.31-5.16.56-7.58.31-3,19.66-112.48,21.71-123.67,1.08-5.86.75-11.69.31-17.59-.34-4.64-1.01-9.73-4.78-12.92-4.31-3.65-10.43-3.96-15.8-3.74-2.83.11-8.09-1.23-10.9-1.69-2.71-.44-5.95-2.36-6.61-2.2,1.33-2.57-7.9-4.03-9.55-4.3-.96-.16-3.25,1.56-2.53,1.54-1.18.65-4.63-.85-5.56-.97-.84-.11-2.47.86-3.23,1.09-3.53,1.07-6.7.29-10.26.39-3.18.08-1.25,2.25.71,2.84,2.77.83,5.79.93,8.61,1.66,2.34.6,4.21,1.84,6.22,3.12,2.42,1.55,5.86,1.79,8.6,2.87,1.06.42,4.92,1.21,5.62,1.26.38.03.98.47,1.42.55.27.05,2.1.42,2.55.65.85.45,1.76.79,2.68,1.07,2.76.85,5.72,1.31,8.59,1.55,2.59.21,5.75-.3,7.82,1.64,1.96,1.84,2.01,4.73,2.23,7.22.31,3.42.49,6.66-.05,10.07-1.05,6.6-23.35,104.9-25.54,118.24-1.13,6.88-2.15,13.77-2.47,20.75-.28,6.09.11,11.44,4.3,16.15,1.71,1.93,3.37,4.17,5.49,5.69,2.64,1.9,6.05,2.47,9.23,2.7,5.91.43,11.9-.69,15.75-5.54,4.32-5.45,5.95-12.94,7.36-19.6,1.52-7.23,3.02-14.44,4.74-21.63,1.21-5.06,3.4-12.23,9.5-13.06,3.32-.45,4.62,2.03,7.53,2.89,3.62,1.07,3.46-2.76,2.4-5.18Z"/>
        <path class="cls-6" d="M92.08,34.43s1.61,3.64,17.15,6.42c0,0-5.98-4.48,2.24-10.37,0,0-.06-1.11-2.97-1.99,0,0-11.78-4.04-13.26-2.5,0,0-4.19,1.58-3.15,8.45Z"/>
        <path class="cls-1" d="M139.37,118.97c-.37-1.83-3.06-1.82-4.46-1.93-.73-.06-2.13-.54-2.78-.04-.8.62-.54,2.44-.59,3.29-.19,2.73-.44,5.46-.68,8.19-.2,2.33-1.25,5.42-.72,7.73.45,1.96,2.34,1.92,4.02,2.27,2.94.62,2.71-1.14,2.97-3.63.29-2.73.7-5.39,1.2-8.09.44-2.34,1.51-5.41,1.03-7.78Z"/>
        <path class="cls-1" d="M139.2,95.88c-1.14.23-1.57.29-1.87,1.38-.27.98-.2,2.36-.33,3.39-.17,1.42-1.28,5.04-.33,6.31.93,1.25,2.38-.64,3.28.38.54.61.17,2.15.24,2.91.13,1.28.49,2.02.2,3.28-.18.8-.76,1.34.51,1.64,1.03.24,1.72-.69,1.99-1.56.61-1.95,0-4.45-.06-6.44-.1-2.81,2.35-12.44-3.62-11.29Z"/>
        <path class="cls-1" d="M126.97,197.42c1.47-.54,2.55-.9,2.96-2.51.51-1.96.48-4.15.67-6.16.38-4.03.83-8.05,1.36-12.06,1.02-7.67,1.72-15.52,3.31-23.09.33-1.57,1.22-4.44-.71-5.32-.82-.37-2.51-.25-3.24.32-.97.76-.95,2.53-1.12,3.68-.55,3.7-1.19,7.39-1.66,11.1-.48,3.81-.66,7.58-1.38,11.36-.84,4.41-.98,8.87-1.45,13.33-.18,1.74-2.92,10.9,1.26,9.36Z"/>
        <path class="cls-7" d="M97.16,34.11c0-2.36,1.22-4.28,1.78-5.23.67-1.13,2.84-2.39,2.84-2.39-1.13-.22-2.56-.88-5.15-.86-.8,0-2.64,0-4.29,3.58-1,2.16-1.2,4.91.74,6.47.54.44,2.42,1.51,4.52,2.16.22.07-.47-2.47-.45-3.73ZM95.85,35.69s-.01.09,0,0h0Z"/>
        <path class="cls-7" d="M101.41,38.92c.21.37,2.92.93,2.92.93-.66-3.05-.91-5.27-.38-6.6,1.22-3.03,3.15-3.77,4.54-4.75,0,0-3.32-1.2-3.93-.97-1.41.51-3.31,2.61-3.89,3.93-.72,1.65-.84,4.66.73,7.47Z"/>
        <g>
          <path class="cls-5" d="M152.96,47.83c-.06-2.99-.31-5.93-1.66-8.65-1.29-2.59-3.15-5.1-5.79-6.43-2.98-1.49-6.33-1.39-9.58-1.38-.11-.15-.25-.26-.49-.29-.29-.04-.57.1-.74.32-.06.01-.11.03-.17.05-.48-.13-1.08.11-1.08.74s.56.85,1.03.75c-.01.37-.03.73-.03,1.1,0,.55-.07,1.38.2,1.88.37.69,1.23.64,1.49-.11.18-.51.11-1.19.11-1.73,0-.29,0-.6,0-.9.98,0,2.01-.15,2.92-.15.46,0,.91.03,1.37.07-.04.76-.15,1.52-.18,2.28-.02.53-.12,1.29.16,1.77.51.88,1.45.32,1.56-.49.1-.72,0-1.47.06-2.19.03-.33.1-.72.09-1.1,1.45.33,2.84.92,4.03,1.87.89.71,1.69,1.59,2.37,2.55-.02.29.05.61.12.88.25,1.03.44,2.06.46,3.12.05,2.3-.62,4.56-1.26,6.74-1.3,4.41-3.01,8.64-5.29,12.64-.2.36-.56.8-.79,1.25-1.42-.06-2.83-.13-4.25-.1-1.02.03-1.79,1.2-.55,1.65.88.32,2.02-.02,2.95,0,.7.02,1.4.03,2.09.05.08.02.17.02.26,0,.76.02,1.53.05,2.29.1,1.58.1,3.14.38,4.71.55.16.02.33.04.5.08.13.06.27.1.42.08.36.07.73.14,1.07.14.38,0,.77-.25.86-.65.11-.51-.31-.77-.73-.95.09-.25.17-.5.26-.73.23-.57.52-1.17.62-1.78.03-.22.04-.44-.02-.63.14-.86.18-1.76.27-2.58.37-3.27.45-6.55.38-9.84ZM147.7,62.82c-1.3-.18-2.58-.26-3.87-.31,1.06-1.75,1.98-3.64,2.8-5.49.9-2.03,1.67-4.11,2.35-6.22.72-2.24,1.43-4.52,1.74-6.85.03-.23.07-.72.1-1.34.72,2.96.59,6.22.52,9.24-.04,1.57-.13,3.13-.29,4.69-.16,1.52-.25,3.18-.75,4.62-.09.28-.18.57-.16.84-.14.33-.28.67-.41,1-.73-.08-1.48-.1-2.2-.2.06,0,.11.02.17.02Z"/>
          <path class="cls-5" d="M123.05,211.21c-1.14-.86-2.67-1.52-4.11-1.61-.21-.01-.37-.01-.49-.02,0-.14,0-.25.01-.33.17-2.24.26-4.49.44-6.72.32-4.04.73-8.08,1.23-12.11,1.31-.3,2.37-1.2,2.87-2.45.63-1.57.57-3.23-.01-4.78-.28-.76-.62-1.03-1.34-1.4-.05-.03-.11-.05-.16-.08.05-.23.1-.47.15-.7.15-.68.36-1.35.53-2.02.13-.52.4-1.24.26-1.78-.01-.04-.03-.07-.05-.11.1-.05.2-.1.29-.15.57-.34.94-.79,1.39-1.27.51-.55,1-.63,1.73-.65,1.25-.03,2.68-.15,3.55-1.19.76-.91.74-2.24.92-3.35.52-3.25,1.1-6.52,1.75-9.75,1.37-6.76,1.92-13.59,2.95-20.4.22-1.43.57-2.93.53-4.38-.04-1.54-.88-2.28-2.36-2.57-.36-.07-1.52,0-1.76-.29-.22-.26-.1-1.02-.27-1.37-.62-1.26-2.16-2.04-3.53-2.04-.59,0-.59.29-1,.56-.32.22-.76.2-1.11.38-.68.36-1.12,1.15-1.35,1.9-.11,0-.23-.01-.35-.01.74-3.18,1.45-6.37,2.15-9.56.02.17.04.34.08.5.21.85,1.07,2.09,1.86,2.52.84.45,1.99.48,2.9.25,1.78-.44,2.81-2.14,2.59-3.93-.24-1.96-2.16-2.86-3.95-2.88-1.16,0-1.86.82-2.81,1.34-.09.05-.15.09-.22.14.36-1.66.72-3.33,1.08-4.99.52.21,1.31.09,1.76.1.15,0,.33.01.53.02.18.22.42.41.7.53,1.04.46,2.41-.1,2.99-1.03.1-.16.18-.47.23-.84.44.14.92.18,1.38.09.91-.19,1.66-.81,1.96-1.7.2-.62-.1-1.56.37-1.96.27-.23.53-.28.53-.73,0-.42-.29-.69-.65-.84-.7-.3-1.65-.27-2.39-.16-1.53-.24-2.75,1.66-2.89,2.98-.01.11,0,.21.01.31-.85.12-1.71.34-2.26,1.02-.16.2-.26.41-.33.64-.03,0-.07,0-.09,0-.38,0-1.01-.09-1.53,0,.33-1.58.67-3.17,1-4.75.14-.69.28-1.38.42-2.06.3.03.61.02.85.03.21,0,.49.03.76.03.34,1.22,1.73,2.02,2.95,1.77,1.22-.26,2.17-1.46,1.87-2.72-.26-1.12-1.49-2.31-2.71-1.82-.23.1-.38.33-.6.44-.33.16-.68.13-.98.36-.12.09-.21.2-.3.32-.37-.05-.76-.04-1.05-.05-.14,0-.3-.02-.46-.03.41-1.98.82-3.96,1.24-5.94.57.39,1.7.28,2.26.31.3.74.96,1.28,1.85,1.45.71.13.48.34.69.98.25.73.98,1.27,1.69,1.49,1.4.45,2.93-.36,3.16-1.85.26.2.69-.03.87-.24.31-.36.21-.8-.04-1.16-.48-.73-1.33-1.39-2.15-1.67-.36-.12-.65-.14-.85-.48-.19-.32-.13-.72-.35-1.04-.42-.62-1.27-1.01-2.01-1.01-1.32,0-2.58.57-2.94,1.86-.01,0-.03,0-.04,0-.45-.03-1.26-.21-1.84-.08.36-1.66.72-3.33,1.1-4.99.13-.57.27-1.15.41-1.72.56.33,1.59.23,2.1.26.11,0,.26.02.41.04-.06.18-.11.37-.12.59-.03,1.26,1.2,2.38,2.44,2.33.66-.03,1.26-.4,1.66-.92.04-.04.07-.08.1-.13.28-.4.44-.88.42-1.37-.04-.89-.75-1.76-1.62-1.95-.28-.17-.58-.18-.85.03-.08.02-.17.04-.25.06-.52-.46-1.72-.35-2.28-.37-.41-.01-1.11-.16-1.65-.08.39-1.51.8-3.02,1.26-4.52.34-1.09.93-2.42.97-3.58,0-.2-.05-.36-.14-.51.02-.21.04-.42.07-.62.14-.93.29-1.87.46-2.8.23-.01.45-.04.62-.04.26,0,.61,0,.97-.01.11.18.24.34.39.49.96.94,2.51,1.15,3.45.09,1.3-1.47.96-4.91-1.55-4.59-1.03.06-1.91,1.16-2.41,1.97-.04.07-.07.14-.1.21-.33,0-.66,0-.98.01.27-1.1.61-2.21.7-3.32.01-.14,0-.29,0-.42.78-.23,1.55-.78,2.3-1.02.91-.29,1.87-.5,2.82-.6.24,1.13,1.03,2.09,2.3,1.93,2.95-.38,2.08-5.67-.86-5-.71.17-1.15.71-1.37,1.37-1.62.29-3.19.65-4.76,1.22-.58.21-1.48.39-1.81.98-.16.27-.16.53-.06.73-.07.08-.11.18-.14.29-.58,2.88-1.15,5.75-1.68,8.64-.12.67-.27,1.33-.4,2-.07.39-.23.9-.17,1.33-1.06,3.8-2.07,7.62-2.96,11.47-.47,2.03-.89,4.06-1.3,6.1-.83-.26-1.9-.34-2.46-.14-.98.37-1.41,1.48-1.72,2.39-.43,1.25-.83,2.53-1.14,3.82-.73,3.01-1.14,6.11-1.71,9.16-.82,4.41-1.63,8.83-2.45,13.24-.25.02-.48.05-.64.07-.67.08-2.08.28-2.52.99-.13.1-.24.24-.3.45-1.33,5.3-1.99,10.73-3.04,16.08-1.08,5.47-2.12,10.94-3.17,16.42-1.04,5.45-2.36,10.84-3.18,16.33-.81,5.45-1.23,10.94-1.89,16.41-.31,2.59-.85,5.3-.62,7.91.09,1.08.53,2.01,1.47,2.59.75.47,2.08.92,2.91.37.24-.16.38-.41.4-.68.84-.2,1.66-.42,2.55-.53.52-.07,1.05-.21,1.58-.2.68,0,.88.38,1.21.92.2.33.67.89,1.05,1.47-.05.65-.11,1.3-.16,1.95-.01.15-.03.29-.04.44-.27.26-.55.53-.74.83-.38.62-.65,1.31-.83,2.01-.63,2.5-.03,5.17,1.91,6.92,1.5,1.35,3.63,2.11,5.65,1.82,5.42-.78,6.33-8.91,2.33-11.9ZM144.1,70.71s-.07.09,0,0h0ZM144.09,70.7s-.12.05,0,0h0ZM116.77,206.75c.4-4.89.82-9.77,1.41-14.64.06-.52.14-1.03.21-1.55-.51,4.04-.87,8.11-1.18,12.15-.11,1.42-.19,2.84-.28,4.26-.05-.07-.11-.15-.16-.22ZM119.93,181.13c-.06-.01-.12-.03-.17-.05.17-1.18.33-2.36.53-3.53.15,0,.3,0,.45,0-.29,1.19-.56,2.38-.8,3.58ZM123.93,113.41c.51-2.94.98-5.99,2.12-8.76.47-1.14.81-1.28,1.96-.9.07.02.14.05.21.07-.43,2.15-.85,4.3-1.29,6.45-1.98,9.55-4.22,19.02-6.33,28.54-.37,1.68-.74,3.42-.81,5.15-.03.6.03,1.27.29,1.78-.03,1.29.39,2.57,1.38,3.44,1.29,1.13,3.47,1.5,4.88.37,1.31-1.05,1.98-3.18,1.91-4.81-.1-2.15-1.7-3.88-3.9-3.88-1.06,0-1.96.43-2.66,1.09.01-.1.02-.19.04-.29.18-1.18.45-2.34.72-3.5.31-1.29.61-2.59.91-3.88.2,0,.41,0,.62,0,.18,1.06.87,1.94,1.96,2.43,1.67.77,3.4.32,4.5-1.14.51-.68.48-.82,1.34-.7.61.09,1.74.05,1.99.74.28.79-.1,2.12-.21,2.91-.17,1.17-.36,2.34-.52,3.52-.33,2.38-.57,4.78-.85,7.17-.56,4.73-1.53,9.37-2.36,14.05-.45,2.54-.98,5.1-1.31,7.66-.11.86-.14,1.82-1.01,2.22-.71.32-1.58.26-2.34.3.37-1.35.04-2.84-.75-3.98-.75-1.09-2.1-1.58-3.37-1.78-2.43-.38-3.97,1.6-4.45,3.76-.47,2.09.14,4.55,2.11,5.63-.05.43-.11.87-.18,1.3-.13.93-.28,1.86-.42,2.8-1.42.45-2.48,1.81-2.89,3.22-.22-.16-.43-.04-.66-.04-.09.03-.17.07-.24.13-.08-.1-.17-.19-.27-.26-.43-.21-.82-.46-1.31-.53-.41-.05-.82,0-1.23.1.02-.25.05-.5.08-.74.23-1.56,1.48-10.84,2.01-13.89,1.09-6.21,2.04-12.44,3.21-18.63,1.16-6.1,2.52-12.17,3.72-18.27,0-.02,0-.03,0-.05.36-.08.63-.28.67-.71.04-.4-.12-.64-.39-.79,1.11-5.75,2.14-11.52,3.14-17.3ZM113.51,202.41c-.59-.9-1.09-2.43-2.4-2.43-.53,0-1,.35-1.15.86-.07.25-.03.45.01.7,0,.1.06.18.14.25-.04.12-.07.24-.07.36.1.57.55.93.92,1.35.47.54.92,1.09,1.3,1.7-1.56.06-3.18.15-4.68.59-.4.12-.99.3-1.31.65-.35-.17-.63-.45-.78-.9-.38-1.12-.1-2.63,0-3.79.12-1.34.29-2.68.46-4.02.68-5.46,1.03-10.97,1.89-16.41.85-5.45,2.16-10.81,3.17-16.22,1.03-5.53,2.11-11.05,3.18-16.57.53-2.72.98-5.46,1.46-8.19.25-1.39.5-2.78.78-4.17.22-1.11.64-2.3.75-3.44.52-.15,1.05-.4,1.35-.46.07-.01.15-.01.23-.02-.25,1.34-.5,2.67-.75,4.01-1.16,6.15-2.56,12.26-3.62,18.42-1.09,6.28-2.26,12.54-3.28,18.83-.51,3.13-.75,6.3-1.22,9.43-.09.59-.19,1.2-.29,1.82-.03.03-.07.05-.11.08-1.65,1.28-2.65,3.61-2.01,5.67.59,1.89,2.6,2.99,4.5,3,2.14.01,3.84-1.87,4.29-3.86.14.16.32.29.5.41-.1.73-.21,1.47-.29,2.2-.5,4.17-.88,8.34-1.23,12.53-.61-.77-1.22-1.54-1.76-2.36Z"/>
          <path class="cls-5" d="M145.6,174.49c-1.34-1.51-3.31-2.39-5.33-2.39-3.06,0-6.07,1.2-7.63,3.96-1.66,2.96-1.61,6.81.24,9.66,1,1.54,2.2,2.14,3.98,2.35.87.1,1.73.29,2.6.37,1.09.1,2.21-.21,3.24-.52,1.63-.49,3.07-1.48,4.09-2.86,1.09-1.48,1.1-3.27.92-5.02-.21-2-.75-4.02-2.12-5.56Z"/>
          <path class="cls-5" d="M140.39,189.31c-.71-.36-1.51-.61-2.3-.5-.87.12-1.57-.26-2.43-.26-2.28-.03-4.13,1.57-5.12,3.54-.68-.7-1.7-1.62-2.39-.93-.26.26-.3.53-.21.8-.02.06-.04.13-.04.2-.16,3.53-1.01,7.15-2.18,10.48-.5,1.41-.98,2.85.01,4.15.42.55.92,1.05,1.39,1.57-.39,1.77-.03,3.67,1.43,5.05,1.71,1.63,4.65,2.19,6.67.8,1.9-1.3,2.76-3.93,2.46-6.15-.34-2.5-2.41-4.56-4.99-4.56-2.18,0-3.98,1.37-4.95,3.18-.46-.43-.9-.9-.96-1.49-.04-.42.19-.85.32-1.24.19-.57.34-1.15.51-1.72.73-2.53,1.33-5.06,1.78-7.66.05-.27.13-.63.19-1.02.04.03.08.07.12.1.06.06.13.13.21.21-.59,2.78.46,5.77,2.84,7.39,2.55,1.74,6.24,1.8,8.55-.33,2.17-2,2.77-5.1,1.92-7.87-.47-1.54-1.37-2.98-2.84-3.73Z"/>
          <path class="cls-5" d="M119.94,159.56c-.76-.12-1.5,1.4-1.55,1.96-.1,1.05.73,1.84,1.67,2.12,1.81.54,3.84-.54,3.82-2.56,0-.27-.15-.59,0-.81.25-.36,1.04-.53,1.38-.82.83-.71,1.36-1.88,1.38-2.96.04-2.17-2.31-3.91-4.36-3.91-3.51,0-5.19,4.92-2.34,6.99Z"/>
        </g>
        <path class="cls-5" d="M118,33.44l-4.85-1.74c-.2.11-1.93.46-3.28,3.26-1.46,3.02.01,5.12.53,5.9l4.62,1.58s-1.79-1.9-.5-5.4c1.28-3.5,3.49-3.6,3.49-3.6Z"/>
        <path class="cls-4" d="M152.91,151.44c1.84,2.71,3.62,5.47,5.54,8.13,1.74,2.42,3.74,4.97,6.07,6.84.54.44,2.45,2.07,2.69.43.13-.89-1.33-1.45-1.91-1.94-1.93-1.63-3.22-3.75-4.95-5.55.01.03.03.06.06.08-1.62-2.21-3.1-4.49-4.62-6.77-1.54-2.31-3.05-4.54-4.33-7.01-.29-.56-.73-1.97-1.55-1.92-.99.05-.72,1.21-.48,1.78.32.77.82,1.45,1.22,2.18.69,1.28,1.45,2.53,2.27,3.73Z"/>
      </g>
    </g>
  </g>
</svg>