<?xml version="1.0" encoding="UTF-8"?>
<svg id="_レイヤー_2" data-name="レイヤー 2" xmlns="http://www.w3.org/2000/svg" viewBox="0 0 252.75 252.75">
  <defs>
    <style>
      .cls-1 {
        fill: #c7c1bb;
      }

      .cls-2 {
        fill: #fff;
      }

      .cls-3 {
        fill: #5d5a53;
      }

      .cls-4 {
        fill: #e9e6e0;
      }

      .cls-5 {
        fill: #bfbaaf;
      }
    </style>
  </defs>
  <g id="_レイヤー_1-2" data-name="レイヤー 1">
    <g>
      <circle class="cls-2" cx="126.37" cy="126.37" r="126.37"/>
      <g>
        <path class="cls-5" d="M125.07,31.59c-.69-1.25-.37-8.67,1.42-9.33,0,0,2.19-.8,1.99,9.33h-3.41Z"/>
        <path class="cls-3" d="M138.4,199.65c-.75-4.12-3.05-36.87-3.08-39.89-.03-3.97-.33-9.88-.36-13.85-.04-7.85-.13-15.82-.4-23.67-.54-16.18-.16-31.28-1.57-49.92-.27-3.63-.7-17.47-.84-18.04-.21-.86-1.08-14.35-1.19-17.13-.07-1.77-1.72-12.93-2.89-11.86-.54.49-2.16.67-3.16,0-.95-.64-2.45,6.77-2.55,8.37-.04.67-.43,7.26-.52,8.6-.18,2.67-.13,3.56-.2,5.69-.59,16.04-.37,32.1-.59,48.15-.21,15.82-.37,31.64-.62,47.46-.12,7.71-.2,15.39-.43,23.09-.23,7.67-2.96,31.01-3.71,35.01-.78,4.12-2.29,8.04-3.98,11.87-.83,1.88-1.72,3.71-2.71,5.5-.72,1.3-1.62,2.73-1.32,4.3.61,3.2,9.24,7.58,19.14,7.14,11.43-.51,14.92-5.02,16.09-6.12,1.5-1.43,1.1-2.75.21-4.45-1.93-3.67-3.4-9.67-5.32-20.26Z"/>
        <path class="cls-4" d="M126,36.02c-1.06.09-3.1.37-3.98,1.06l-.17,2.19c0,.16.08-.42,4.95-.63,1.4-.06,4.27.82,4.27.82l-.11-2.31c-1.06-.94-3.67-1.24-4.97-1.13Z"/>
        <path class="cls-4" d="M118.57,191.98c.64.38,1.61-.1,1.5-.9.9.16,2.59,2.08,3.38,1.63-.26,2.17,1.72,1.63,2.06-.07.39-1.96.18-4.31.35-6.32.37-4.26.58-8.51.66-12.78.02-1.01.33-3.55-1.02-4.01-.26-.19-.54-.21-.83-.08-.21.54-.54.57-.98.08-.79.09-1.4.15-2.18.41-.76.26-4.08,1.42-2.83,2.75,1.11,1.18,3.35-.98,4.44-1.21.66,2.53-.18,5.93-.32,8.52-.17,3.31-.52,6.61-.7,9.92-.9-.66-2.39-1.09-3.37-.32-.71.55-1.11,1.82-.17,2.37ZM119.82,191.14s-.11.05,0,0h0Z"/>
        <path class="cls-4" d="M121.67,47.55l-.12,3.21c1.07.1,3.7-.13,4.08-1.04.58-1.41.64-5.06.65-6.54,0-1.56.04-2.78-1.77-3.24-.89-.23-2.5-.21-2.5-.21,0,0-.17,2.01-.16,3.33,0,0,1.1-.15,1.55.1,1.46.84.86,3.05.58,3.56-.4.74-1.75.31-2.3.84ZM123.72,46.93s-.07.08,0,0h0Z"/>
        <path class="cls-4" d="M129.3,47.25c-.28-.51-.5-2.37.25-3.6.23-.38,1.79.15,1.8.14-.07-1.13-.27-3.53-.27-3.53,0,0-1.42-.01-2.31.21-1.81.46-1.78,1.68-1.77,3.24,0,1.49-.09,4.68.49,6.09.38.91,3.29,1.33,4.36,1.23l-.23-3.2c-.55-.53-1.92.16-2.32-.58ZM129.55,47.47c.07.08.01.02,0,0h0Z"/>
        <path class="cls-4" d="M126.27,55.25c-1.23.09-3.84.34-4.86,1.03v2.66c0,.16.13-.86,5.79-1.07,1.63-.06,5.29,1.07,5.29,1.07l-.15-2.42c-1.23-.94-4.56-1.38-6.07-1.28Z"/>
        <path class="cls-4" d="M127.42,68.43c-2.46,0-5.21.33-6.24,1.02v2.66c0,.16.13-.83,5.79-1.07,3.85-.17,5.99,1.37,5.99,1.37l-.13-2.79c-1.23-.94-3.09-1.22-5.42-1.2Z"/>
        <path class="cls-4" d="M127.71,169.36c-6.78-.2-6.76-1.85-7.78-2.54l.16-2.97c0-.16.21,2.61,7.53,2.61,6.74,0,7.87-3.19,7.87-3.19l.19,3.04c-.56.58-1.24,3.04-7.97,3.04Z"/>
        <path class="cls-4" d="M127.13,208.22c-6.78-.2-10.19-2.87-11.33-4.31l.61-3.19c0-.16,3.68,4.32,11.01,4.32,6.74,0,11.11-4.71,11.11-4.71l.51,2.7c-1.59,2.02-5.17,5.18-11.9,5.18Z"/>
        <g>
          <path class="cls-1" d="M122.97,89.02c.38.26.7.26.98.12.13-.01.26-.03.39-.05.25-.04.5-.08.75-.13-.36,2.26-1.08,5.42.89,6.65,1.61,1,2.9-.14,3.37-1.69.58-1.9.33-3.69-.13-5.52.64-.09,1.29-.17,1.94-.18,0,.25-.04.52-.04.71,0,.7,0,1.41,0,2.11,0,.98-.17,2.31.36,3.19.59.99,1.89.82,2.63.09.93-.92.25-2-.06-3.02-.34-1.11-.57-2.37-.71-3.52-.08-.64-.07-2.07-1.01-1.91-.25.04-.5.26-.73.46-.17-.02-.34-.02-.49-.01-.78.03-1.55.14-2.33.24,0-.01,0-.03,0-.05-.05-1.29.45-2.69,0-3.94-.39-1.05-1.45-1.73-2.55-1.29-.91.37-.92,1.38-.71,2.19.12.5.41.98.43,1.51.02.58-.27,1.14-.4,1.69-.02.08-.03.16-.05.23-.29.04-.57.1-.86.15-.02,0-.05,0-.07-.02-.57-.16-1.03-.44-1.55-.68-.49-.23-.47-.25-.72.12-.49.72.04,2.09.7,2.54Z"/>
          <path class="cls-1" d="M125.89,98.27c-1.36.31-2.21,2.24-1.4,3.41.74,1.06,2.58,1.42,3.58.52,1.61-1.46-.15-4.4-2.18-3.93Z"/>
          <path class="cls-1" d="M124.65,108.04c.16.23.4.39.66.46.33.43.87.6,1.43.52,1.12-.17,2.22-1.22,2.15-2.4-.07-1.21-1.27-2.08-2.44-1.94-.15.02-.31.05-.47.1-.17.02-.34.08-.49.19,0,0,0,0,0,0-.22.11-.43.24-.59.4-.27.27-.33.47-.3.69-.32.62-.39,1.33.06,1.97Z"/>
          <path class="cls-1" d="M128.51,110.5c-.49-.84-1.96-1.82-2.9-1.15-1.13.82-1.95,2.45-.84,3.65.74.81,2.24,1.11,3.16.45.89-.64,1.12-2.02.58-2.95Z"/>
          <path class="cls-1" d="M120.03,118.03c.14-1.82.43-3.64.82-5.42.16-.75.32-1.48.44-2.24.14-.89.33-.36.97-.69.55-.28.69-1.04.28-1.49-.42-.45-1.2-.39-1.74-.29-1.19.23-1.29,1.7-1.46,2.65-.28,1.59-.94,3.07-1.21,4.67-.25,1.51-.82,3.2-.61,4.75.11.86.65,2.24,1.75,1.98.71-.16.9-.76.85-1.41-.06-.85-.15-1.66-.08-2.52Z"/>
          <path class="cls-1" d="M123.5,114.91c.13-.87-.51-1.98-1.47-1.34-1.08.42-.92,1.82-.98,2.76-.06,1.03-.25,2.25.06,3.26.53,1.76,3.58,1.24,4.99.88,1.17-.3,3.02-1.45,1.46-2.69-1.35-1.08-3.35.54-4.67.91-.03-.76-.09-1.64.03-2.39.09-.53.5-.87.58-1.39Z"/>
          <path class="cls-1" d="M126.58,116.97c2.04.47,2.16-3.35-.26-2.92-1.3.23-1.33,1.55-.66,2.35.14.39.53.58.92.57Z"/>
          <path class="cls-1" d="M130.65,114.66c.8-.28,1.67-.58,2.06-1.39.45-.91.44-2.09.56-3.08.12-1.04.42-2.32.14-3.36-.06-.21-.17-.41-.32-.57-.32-1.02-1.55-1.86-2.51-1.13-1.48,1.14-.31,2.57.91,2.85,0,.07.01.14,0,.2-.03.63-.07,1.27-.15,1.89-.08.67-.03,2.12-.62,2.53-.65.45-1.99.28-2.16,1.29-.23,1.36,1.34,1.01,2.07.75Z"/>
          <path class="cls-1" d="M134.9,130.79c-.08-1.73.11-3.8-.4-5.46-.4-1.32-1.81-1.33-2.96-1.37-.12,0-.22.02-.32.06,0-.06.02-.13.04-.19.83-.39,1.46-1,1.86-1.9.22-.49.65-1.14.48-1.7-.19-.64-.89-.81-1.46-.58-.58.25-.9.67-1.04,1.28-.15.65.13.72-.62.68-.74-.04-1.49-.05-2.22-.14-.5-.06-1.06-.24-1.57-.13-.55.12-.84.39-1.45.41-.57.01-1.19-.12-1.76,0-1.11.25-1.26,1.44-.47,2.17.92.85,2.6.59,3.73.51.85-.07,1.74-.03,2.6-.11-.08.77-.06,1.55.04,2.34.14,1.06.28,2.29,1.23,2.97.51.36.62.46.69,1.12.07.63-.02,1.26.03,1.89.04.51.12.98.66,1.16.41.14.79-.02,1.03-.34,0,.58,0,1.16-.02,1.73-.03.61-.39,1.61-.12,2.18.18.39.74.69,1.16.53.73-.29.79-1.59.84-2.23.12-1.62.1-3.26.03-4.88ZM132.29,127.16c-.04-.4-.04-.84-.11-1.26.66.09.6.43.61,1.07.01.83.07,1.65.12,2.47-.03-.08-.05-.16-.08-.25-.26-.7-.48-1.3-.55-2.04Z"/>
          <path class="cls-1" d="M127.52,127.86c1.01-1.23-.65-3.26-2.06-2.49-.36.19-.81,1.06-.9,1.47-.12.54.16.99.61,1.27.67.41,1.82.4,2.35-.24Z"/>
          <path class="cls-1" d="M124.79,132.19c.76.85,2.37,1,3.16.11,1.29-1.45-.5-4.01-2.3-3.15-1.18.56-1.85,1.93-.86,3.04ZM126.47,130.99s-.12,0,0,0h0Z"/>
          <path class="cls-1" d="M126.5,138.21c2.82.1,2.44-4.69-.16-4.26-1.02.17-1.93.73-2.02,1.84-.11,1.28.91,2.38,2.18,2.42Z"/>
          <path class="cls-1" d="M126.82,140.82c.63-.24,1.18-.87.73-1.55-.36-.53-1.06-.44-1.61-.45-.98-.02-2-.13-2.93-.47-.65-.23-1.53-.9-2.24-.52-1.55.85-1.27,2.38.32,2.99,1.63.62,4.09.64,5.73,0Z"/>
          <path class="cls-1" d="M126.1,141.85c-1.21.3-2.14,1.7-1.66,2.91.44,1.1,1.82,1.64,2.93,1.35,2.91-.76,1.58-4.98-1.27-4.26Z"/>
          <path class="cls-1" d="M127.02,148.93c-.04-.24-.1-.47-.2-.69-.4-.89-1.18-1.35-2.06-1.53-.62-.32-1.38-.44-1.97-.05-.49.32-.95.36-1.28.91-.24.39-.33.87-.22,1.32.19.81.95,1.26,1.71,1.47-.26,0-.53.03-.79.1-1.27.33-2.16,2.06-.84,2.91.74.48,1.75.44,2.63.19,0,.14,0,.28,0,.42,0,.05,0,.11,0,.18-.09.69-.09,1.42-.19,2.05-.13.81-.37,1.85-.02,2.64.06.13.13.23.22.32.06.61.91,1.08,1.62.81.85-.31.94-1.32,1.03-2.1.15-1.44.37-2.87.62-4.29.22-1.21.49-2.45.17-3.67-.09-.33-.24-.71-.46-1Z"/>
        </g>
      </g>
    </g>
  </g>
</svg>