<?xml version="1.0" encoding="UTF-8"?>
<svg id="_レイヤー_2" data-name="レイヤー 2" xmlns="http://www.w3.org/2000/svg" viewBox="0 0 252.75 252.75">
  <defs>
    <style>
      .cls-1 {
        fill: #e4b959;
      }

      .cls-2 {
        fill: #fff;
      }

      .cls-3 {
        fill: #cd9e6c;
      }

      .cls-4 {
        fill: #f6e3c6;
      }

      .cls-5 {
        fill: #e7d193;
      }
    </style>
  </defs>
  <g id="_レイヤー_1-2" data-name="レイヤー 1">
    <g>
      <circle class="cls-2" cx="126.37" cy="126.37" r="126.37"/>
      <g>
        <path class="cls-1" d="M174.95,114.26c-1.11-.06-1.73-.09-2.24,1-.48,1.02-.51,1.11-1.67,1.02-.99-.08-2.5-.53-3.46-.23-.87.27-1.46,1.8-.61,2.42-.91.18-1.26,1.4-.38,1.88.53.29,1.31.09,1.89.13.72.04,1.44.15,2.15.23.88.09,2.44-.11,2.79.86.3.84.55,2.12,1.78,1.81,1.4-.35,1.63-2.64,1.74-3.79.08-.84.07-1.68-.09-2.52-.19-.93-.7-2.74-1.89-2.8Z"/>
        <path class="cls-3" d="M82.53,123.39c-.37.69-.08,1.62.75,1.74.84.12,1.6-.75,2.15-1.26,1.6-1.46,3.87-2.01,5.95-2.47,1.54-.34,3.03-.45,4.6-.52.82-.04,2.62-.15,2.27-1.42.8.08,2.36.34,2.44-.89.08-1.24-1.87-1.54-2.74-1.67-2.54-.38-5.28-.07-7.83.05-2.57.12-5.63.39-7.62,2.22-.7.64-2.06,1.92-2.2,2.9-.08.6.3.88.79,1.04.39.13,1.03.36,1.44.29Z"/>
        <path class="cls-3" d="M110.61,157.74c-.07-1.29,0-2.6-.16-3.88-.1-.8-2.47-6.17-3.97-4.68-.56.56-.37,1.56-.35,2.26.04,1.31.07,2.61.17,3.91.4,5.16.93,10.33,1.45,15.48.24,2.38-.92,10.03-1.14,10.53-.45,1.02-.97,2.02-1.58,2.95-1.18,1.81-2.71,3.38-4.62,4.42-2.11,1.14-4.3,1.35-6.66,1.2-2.38-.15-5.23.04-7.36-1.19-.84-.48-1.77-1.77-2.8-1.74-1.3.04-.27,7.23.28,7.44,1.46.58,3.8,1.36,5.36,1.56,1.28.16,3.84.02,5.13,0,.64,0,7.78-.78,9.16-1.51,4.77-2.52,7.39-7.16,8.9-10.08.48-.92,2.67-6.08,2.09-14.2-.09-1.32-3.81-11.09-3.88-12.47Z"/>
        <path class="cls-1" d="M168.42,32.15c-5.81-1.2-11.74-1.91-17.66-2.26-11.59-.67-23.2.77-34.55,2.99-5.73,1.12-11.39,2.55-16.93,4.41-4.15,1.4-9.28,3.22-11.61,7.26-.89,1.56-1.49,4.37-.81,6.11.79,2.03,3.26.5,4.94.48,2.59-.04,5.03,1.37,7.38,2.27,2.6,1,5.26,1.86,7.47,3.62,4.07,3.23,8.07,7.35,10.52,11.95,3.01,5.65,4.47,12.01,5.49,18.28-8.27-9.11-22.49-12.01-33.81-7.92-11.7,4.23-19.06,14.71-20.63,26.9-1.77,13.75,1.17,70.19,3.1,84.26.85,6.18,3,12.23,6.77,17.24,3.74,4.97,8.76,8.03,14.25,10.74,11.35,5.6,26.02,6.26,37.49.56,5.82-2.89,9.03-7.47,12.37-12.85,3.21-5.17,3.77-11.23,4.7-17.1,2.23-14.01,2.56-28.49,2.2-42.66-.2-8.04-.28-16.09-.32-24.14-.04-7.68,1.03-15.26.96-22.93-.07-7.28,1.05-15.07,2.89-22.12.88-3.37,2.04-6.68,3.48-9.85.71-1.57,1.49-3.12,2.36-4.61.46-.79,6.46-8.61,8.13-10.11,2.42-2.16,5.28-3.64,8.14-5.13,2.69-1.4,5.66-2.2,8.31-3.58,1.06-.55,1.99-1.24,1.99-2.59,0-2.48-6.98-7.24-16.64-9.24ZM120.55,192.61c-1.4,3.46-4.14,8.9-7,11.39-3.01,2.61-18.24,5.9-23.8-3.03-.73-1.17-1.66-2.99-2.31-4.21-1.01-1.87-1.48-3.96-1.9-6.03-1.95-9.66-2.87-19.32-3.68-29.13-1.56-18.92-3-38.43.54-57.2.74-3.93,1.93-7.7,5.23-10.23,3.32-2.54,7.68-4.14,11.87-4.26,7.42-.21,18.17,3.5,20.93,11.08,1.67,4.59,3.81,82.53.13,91.61Z"/>
        <path class="cls-5" d="M168.6,118.94c-.09-1.04-.16-2.35-.89-3.16-.86-.94-2.13-.82-3.29-.79-3.08.08-6.18.43-9.23-.22-3.18-.67-6.1-1.79-9.41-1.75-3.27.04-6.31.97-9.02,2.8-2.69,1.83-5,4.2-7.47,6.31-1.32,1.13-2.63,2.26-3.88,3.46-1.14,1.1-2.39,2.16-3.29,3.48-.65-1.29-1.85-2.12-3.14-2.72-.63-.29-1.51-.29-2.2-.41-.86-.15-1.77-.07-2.56.29.16-2.87.28-5.77.31-8.64,0-.92-.02-2.08-.73-2.76-.39-.37-1.03-.6-1.56-.67-.14-.02-1.12-.1-1.16-.05.02-.02-.12-.63-.12-.72-.01-.35.07-.69.07-1.04,0-.74-.35-1.49.54-1.7.7-.17,1.72.13,1.97-.81.17-.64-.35-1.29-1-1.29-1.01.05-2,.22-3,.35-.69.09-1.79-.04-2.41.34-.5.31-.69,1.07-.23,1.51.37.36,1.05.32,1.52.31-.09.71-.16,1.44-.15,2.16,0,.32.16.92.04,1.27-.38,0-.75,0-1.13.07-.28.05-.62.18-.89.38-.22.05-.4.15-.52.39-.21.44,0,1.11.04,1.56.06.81.05,1.63.08,2.43.05,1.72.08,3.44.09,5.17.03,7.04-.08,14.09-.07,21.13,0,.99.02,1.97,0,2.96-.01.62-.14,1.31.02,1.92.2.73.91,1.01,1.63,1,.15,0,1.31-.1,1.3-.09-.07.17.1.92.11,1.15.02.83.11,1.67.22,2.49.21,1.61.53,3.2.63,4.82.17,2.78-.07,5.77,1.09,8.39.51,1.16,1.3,2.03,2.32,2.76.84.6,2.13.45,2.11,1.69-.06,2.87.43,5.7-.27,8.52-.16.67-.35,2.7-1.09,2.94-.53.18-1.41.04-1.96.06-.85.03-1.69.05-2.54.05-3.38.02-6.77,0-10.16-.03-1.69-.01-3.4-.05-5.08.1-.39.03-1.16.33-1.53.2-.5-.17-.65-1.05-.77-1.47-.8-2.81-2.01-5.54-1.94-8.51.09-3.71-.34-7.39-.46-11.1-.12-3.75.21-7.47-.3-11.21.61.51,2.1-.04,2.78-.14-.13,2.7-.07,5.44.78,8.03.64,1.95,1.36,4.33,3.21,5.47-2.49,2.53-1.41,6.66,2.31,6.84,1.54.07,3.18-.59,3.9-2.02.76-1.51.36-3.5-.7-4.77,1.46-.16,2.79-3.11,3.26-4.23.95-2.27,1.17-4.81,1.27-7.25.03-.78.33-1.95-.07-2.66-.32-.57-.58-.81-.61-1.52-.03-.58.04-1.16.04-1.74.02-2.75,0-5.51,0-8.26,0,2.59-.11,5.17-.03,7.76-.21-4.4-.03-8.81.03-13.21,0,1.46,0,2.92,0,4.39.02-4.87.1-9.73.07-14.6-.02-2.4-.08-4.79-.15-7.19-.02-.81-.06-1.59-.79-2.1-.82-.58-1.98-.56-2.94-.49.02-.83-.09-1.88.1-2.69.13-.57.38-.43.88-.48.59-.05,1.22-.17,1.35-.84.12-.62-.33-1.02-.88-1.16-1.59-.4-3.84.26-5.38.63-.55.13-1.13.31-1.18.98-.06.72.63,1.2,1.31,1.04.05.97.18,1.94.22,2.91-.11.03-.23.04-.34.07-.44.13-.68.35-.8.62-.1.01-.2.04-.29.1-.71.42-.29,2.28-.3,2.97-.02,1.42-.04,2.84,0,4.26-.02-.5-.06-.99-.11-1.49-.16,2.53.29,5.04.29,7.57,0-.26,0-.51,0-.77,0,4.73.71,9.43.75,14.17.02,2.27.05,4.54.1,6.81.01.74-.14,1.66.72,1.92.96.3,2.12-.07,3.11-.02-.45.2-.13,2.66-.11,3.08.05,1.5.08,3.05-.21,4.52-.26,1.3-1.68,4.41-3.2,2.45-1.15-1.49-1.42-3.93-1.65-5.72-.14-1.08-.19-2.17-.28-3.25-.1-1.17.18-2.15.34-3.29.33-2.37-.04-4.93-.08-7.32-.07-4.95-.44-9.89-.44-14.84,0-2.7-.06-5.4-.12-8.09.09-.7-.04-1.52-.11-2.03-.14-1.09-.48-2.31-1.84-2.14-.16.02-.35.03-.54.06-.28-.04-.58-.03-.83-.03-.21,0-.42,0-.63,0-.02-.78-.04-1.55-.05-2.33-.02-1.12.29-.6,1.1-.8.76-.19,1.12-1.01.54-1.62-.49-.52-1.36-.45-2.01-.43-1.05.03-2.1.13-3.15.21-.68.05-1.65-.01-1.94.77-.31.84.52,1.32,1.24,1.31.15,0,.33-.12.48-.06.18.08.04.18.2.29.34.24.55.62,1.07.49-.15.73-.25,1.49-.26,2.24-.49.06-.97.15-1.44.3-.4.13-.89.37-1.12.73-.73.54-.52,2.13-.46,2.83.12,1.63.13,3.27.17,4.9-.46-.55-1.66-.62-2.31-.91-1.02-.47-2.09-.47-3.16-.16-1.66.47-3.76,2.07-4.39,3.73-.38,1.01-.27,2.3-.28,3.36,0,1.24,0,2.48.02,3.72.04,2.67.37,5.4.26,8.06-.04,1.09-.32,2.14-.35,3.23-.04,1.42.03,2.84.1,4.26.14,2.6.32,5.2.5,7.81.37,5.38.61,10.77.84,16.16.1,2.42,1.22,4.84,2.99,6.55.7.67,1.75,1.62,2.74,1.75,1.21.16,2.42-.64,3.28-1.41.1.78.51,1.49.73,2.24.24.83.4,1.67.6,2.51.4,1.68.85,3.38,1.54,4.96.1-.32.15-.65.16-.98,0,.77.53,1.5.88,2.16.41.77.82,1.53,1.3,2.26.84,1.28,1.84,2.44,3.11,3.3,2.72,1.85,6.19,2.52,9.43,2.54,3.2.01,6.63-.73,9.31-2.56,1.2-.82,2.17-1.92,2.97-3.13.4-.61.75-1.25,1.07-1.9.18-.37.35-.75.51-1.13.05-.13.45-.96.25-.77.68-1.21.99-2.65,1.36-3.97.43-1.55.72-3.13.85-4.74.11-1.42.12-2.86.07-4.28-.04-1.43-.37-2.96-.29-4.37.05-.96,1.25-1.68,1.81-2.41.63-.82.7-1.82,1.41-2.5.81-.77.56-2.32.58-3.36.03-1.64.02-3.28.25-4.9.17-1.19-.21-2.24-.22-3.46-.02-1.73-.06-3.45-.11-5.18-.09-3.06-.16-6.11-.25-9.17-.02-.59-.17-1.32-.02-1.9.09-.36.36-.69.48-1.05.37-1.12.59-2.21,1.23-3.22.72-1.14,1.73-2.13,2.62-3.13,1.04-1.16,2.1-2.3,3.25-3.35,2.02-1.85,4.06-3.79,6.44-5.18,2.4-1.4,5.07-2.49,7.82-2.96,1.4-.24,2.55-.21,3.88.3,1.36.53,2.74,1.07,4.14,1.48,2.74.79,5.5.38,8.29.53,1.59.08,3.18.41,4.77.21,2.09-.27,2.53-1.48,2.37-3.46ZM96.78,168.02c.21-.56.61-.87,1.15-1.1.13-.06,1.44-.48,1.5-.37-.03-.02-.04-.02-.04,0,.72.7,1.29,1.43,1.03,2.54-.26,1.09-1.29,1.33-2.29,1.28-1.17-.16-1.76-1.27-1.35-2.35ZM83.95,176c-1.55.55-2.32-2.24-2.53-3.26-.49-2.46-.69-4.97-.81-7.47-.18.17-.16.51-.19.74.1-1.04-.08-2.09-.13-3.13.05.19.1.39.16.58-.07-6.43-.65-12.85-.85-19.28-.1-3.13-.16-6.3.1-9.42.12-1.45.36-2.88.59-4.31.16-.99.21-2.31.91-3.1.9-.71,1.25-.45,1.75.49.48.9.69,1.92.87,2.92.39,2.2.33,4.48.43,6.7.2,4.56.42,9.13.37,13.7-.05,4.58-.45,9.13-.27,13.71.09,2.29.24,4.57.41,6.85.09,1.25.87,3.67-.82,4.27ZM93.11,116.57s.02,0,.02,0t-.02,0ZM109.86,191.19c-1.9,1.21-4.2,1.56-6.41,1.37-4.04-.35-7.9-2.6-10-6.09,5.99-.49,12,.15,17.99-.11.7-.04,1.41-.08,2.11-.12-.86,1.91-1.87,3.81-3.69,4.97ZM118.06,179.5c0-.06,0-.11,0-.17.02-.08.04-.17.06-.25-.02.14-.04.28-.05.43ZM119,163.08c-.15.84-1.59,3.48-2.73,2.84-.94-.57-1.34-1.2-1.48-2.29-.16-1.32-.22-2.65-.32-3.97-.19-2.59-.27-5.2-.71-7.76-.41-2.39-.01-4.9.11-7.3.14-2.71.21-5.44.21-8.16,0-.87-.16-1.98.44-2.72.56-.69,1.38-.18,1.97.22.7.47,1.07.84,1.15,1.7.1,1.07.21,2.15.31,3.22.49,5.27.62,10.58.83,15.86.06,1.44.11,2.87.15,4.31.03,1.28.28,2.79.05,4.06Z"/>
        <path class="cls-4" d="M182.06,44.18c.05.09.11.16.18.23.51-.37,1.07-.67,1.67-.9-.02-.08-.03-.16-.06-.23-5.13-10.19-20.92-11.33-27.66-11.82-18.39-1.33-38.55,1.21-55.31,6.97-3.58,1.23-12.04,4.6-13.2,9.22-.25,1-.23,2.48,1.02,4.08.26-.08.53-.15.81-.2.41-.07.83-.14,1.25-.19-.03-.18-.09-.36-.23-.51-.84-.91-1.15-1.79-.92-2.69.75-3.01,6.89-6.09,11.91-7.82,16.51-5.68,36.37-8.18,54.51-6.87,9.96.72,21.92,2.59,26.02,10.73Z"/>
      </g>
    </g>
  </g>
</svg>