<?xml version="1.0" encoding="UTF-8"?>
<svg id="_レイヤー_2" data-name="レイヤー 2" xmlns="http://www.w3.org/2000/svg" viewBox="0 0 252.75 252.75">
  <defs>
    <style>
      .cls-1 {
        fill: #fff;
      }

      .cls-2 {
        fill: #f3f0ec;
      }

      .cls-3 {
        fill: #d4cdc3;
      }

      .cls-4 {
        fill: #e9e6e0;
      }

      .cls-5 {
        fill: #aea59e;
      }

      .cls-6 {
        fill: #b5b0a7;
      }
    </style>
  </defs>
  <g id="_レイヤー_1-2" data-name="レイヤー 1">
    <g>
      <circle class="cls-1" cx="126.37" cy="126.37" r="126.37"/>
      <g>
        <path class="cls-6" d="M66.79,208.74c-1.39.55,127.35-127.36,127.93-128.4,3.14-5.63-3.38-10.27-7.12-8.04-2.22,1.32-126.52,128.51-126.61,129.17-.15,1.13.05,2.24.58,3.24.89,1.68,3.15,4.5,5.22,4.02Z"/>
        <g>
          <path class="cls-4" d="M68.7,206.99l-1.49,1.5s-2.21,1.76-5.48-.54c-1.36-.95-3-2.94-1.32-6.2l1.84-1.94s-2.54,7.73,6.45,7.18Z"/>
          <path class="cls-5" d="M66.69,207.88c-.23.16-1.93,1.21-4.49-.58-1.24-.87-2.42-2.45-1.12-5.08l.04-.04c.01,1.11.26,2.38,1.09,3.46.97,1.25,2.5,1.97,4.58,2.14l-.1.1M67.22,208.49l1.49-1.5c-8.99.55-6.45-7.18-6.45-7.18l-1.84,1.94c-1.68,3.26-.03,5.25,1.32,6.2,3.27,2.3,5.48.54,5.48.54h0Z"/>
        </g>
        <g>
          <path class="cls-3" d="M90.38,168.6c1.17-1.19,2.35-2.37,3.52-3.56.03.23.07.45.1.63-.67.23-1.26.72-1.56,1.41-.72,1.62.23,3.84,1.78,4.6,1.52.75,3.45-.22,4.03-1.75.65-1.63-.71-3.17-2-4.01-.2-.13-.42-.22-.64-.29-.02-.14-.04-.28-.05-.4-.03-.46.07-.97-.05-1.42-.03-.1-.07-.2-.12-.29,1.16-1.18,2.32-2.36,3.47-3.55-.46,1.34-.17,3.03.71,4.02,1.2,1.35,3.33,1.25,4.53-.06,1.08-1.17,1.6-2.99.53-4.34-.89-1.12-2.62-1.86-4.01-1.43.1-.11.2-.21.3-.32,1.28-1.26,2.55-2.52,3.81-3.8,0,.05.01.1.02.14-.24.34-.42.71-.51,1.11-.4,1.7.63,3.68,2.24,4.35,1.69.7,3.51-.45,4.09-2.07.19-.52.13-1.24.14-1.79.01-.51-.03-1-.25-1.47-.41-.91-1.29-1.58-2.28-1.73-.59-.09-1.19.01-1.75.24-.02-.15-.05-.29-.12-.41,2.02-2.06,4.05-4.11,6.08-6.16,0,.04,0,.08.01.12-1.12,1.72-.07,4.11,1.48,5.24,1.53,1.12,3.63.23,4.64-1.18,1.15-1.62.5-3.86-1.04-4.98-.97-.71-2.18-.85-3.24-.49,0-.17-.03-.34-.08-.5,2.14-2.16,4.28-4.32,6.4-6.5.6-.62,1.21-1.24,1.82-1.86.07.31.22.61.35.88,1.41,2.92,3.66,5.1,5.94,7.35-1.82,1.04,2.68,3.47,3.3,3.67,2.6.87,5.04-.59,6.59-2.66.57-.82.8-1.78.35-2.71-.56-1.17-1.75-1.41-2.93-1.28-1.32.15-2.51.76-3.77,1.13-.47.14-1.04.34-1.54.2-.68-.18-1.25-.87-1.72-1.36-1.07-1.12-2.08-2.32-2.92-3.62-.74-1.14-1.07-2.42-1.65-3.63,2.03-2.08,4.07-4.16,6.11-6.23.05.16.1.3.15.42,0,.02.02.04.03.06-.8,1.2-.61,2.83.29,4.01.62.8,1.55,1.46,2.55,1.67.65.13,2.43.03,2.76-.71.2-.46.66-.78.73-1.3.05-.39-.05-.9-.04-1.3.02-.96-.43-1.91-1.07-2.63-.98-1.1-2.43-1.42-3.71-.92-.06-.26-.13-.5-.19-.69-.01-.03-.03-.07-.04-.1,1.43-1.45,2.85-2.91,4.28-4.36-.19.23-.27.55-.12.84-.14.14-.28.29-.4.46-1.15,1.66-.18,3.83,1.18,5.04,1.63,1.46,4.16,1.35,5.42-.54,1.08-1.62.82-3.72-.5-5.06,1.04.09,2.17-.36,2.74-1.23.38-.62.18-1.43.1-2.11-.09-.8-.31-1.35-1.14-1.6-.58-.17-1.21-.34-1.78-.16-.08-.29-.16-.59-.29-.85-.01-.02-.03-.04-.04-.06,2.9-2.96,5.79-5.93,8.67-8.92.25-.26.49-.51.74-.76.1.27.22.53.3.74.12.32.22.59.14.92-.16.61-.51,1.04-.24,1.71.23.58.8.87,1.4.88.44,0,1.51-.03,1.81-.39.69-.86,1.86-2.05,1.71-3.25-.23-1.83-2.18-1.17-3.14-.47-.21-.3-.4-1-.68-1.48.77-.79,1.53-1.58,2.28-2.39.09.07.18.14.26.19.5.38,1.25,1.17,1.87.54.65-.68-.21-1.3-.73-1.69-.1-.07-.21-.16-.32-.25.35-.4.7-.81,1.05-1.23.07.06.13.11.19.16.47.46,1.17,1.52,1.88.78.54-.56-.15-1.63-1.01-2.28.04-.05.08-.1.12-.16.15-.21,3.08-2.01,1.96-3.13-.11-.11-1.05-1.05-1.68-.4-.8.83-66.78,69.34-67.95,70.43-.27.26-.61.6-.68.99-.23.28-.4.6-.31.94.15.59.93.8,1.35.37ZM140.31,118.59s0,0,0,0c-.27.24-.51.49-.65.75-.4.78-.23,1.7.27,2.38-.84-.18-1.73-.09-2.53.25-.02-.02-.02-.04-.04-.06-.34-.33-.77-.24-1.05.01,1.26-1.28,2.52-2.57,3.77-3.85.08.18.16.36.22.52Z"/>
          <path class="cls-3" d="M76.98,192.18c.08-.37-.1-.64.09-.99.12-.22.42-.41.6-.58.69-.65,1.33-1.37,1.99-2.05,1.44-1.49,2.87-2.99,4.31-4.48.59-.61,1.17-1.23,1.76-1.84.42.64,1.11,1.15,1.78,1.48-.41.46-.9,1.02-.84,1.68.07.82.87,1.26,1.61,1.32,1.56.12,5.53-4.77,4.48-5.56-.65-.49-1.57-.25-2.24.08-.61.31-1.16,1.07-1.87,1.1-.76.04-1.49-.72-1.68-1.39,0,0,0,0,0,0,.38-.4.77-.8,1.15-1.2.65-.69,1.29-1.38,1.93-2.09.21-.23.5-.49.77-.77.24.17.48.33.71.48,1.14.72,2.43,1.24,3.79,1.21.87-.02,2.53-.16,2.69-1.27.07-.45-.16-.98-.58-1.18-.38-.18-.58-.08-.76.1-.43-.23-1.12-.15-1.55-.12-.58.04-1.13-.05-1.66-.22-1.08-.54-2.03-1.15-2.75-2.15-.31-.43-.59-.92-.74-1.43-.14-.47.02-1.07-.23-1.49-.61-1-1.68.15-1.97.79-.34.72-.2,1.51.14,2.2.38.76.95,1.44,1.61,2.04-.43.47-.86.94-1.3,1.4-.37-.65-.53-1.32-.65-2.06-.12-.7-.26-1.46-.85-1.92-.97-.75-2.3.08-2.45,1.19-.04.27,0,.55.07.83-.51.22-.99.58-1.31.88-.81.75-2.34,2.15-1.62,3.36.26.44.63.58,1.02.56.1.09.2.17.29.26.31.32.58.83,1.03.96.65.18,1.34-.56.92-1.17-.19-.28-.41-.58-.64-.87.14-.13.27-.27.37-.4.4-.34,1-.85,1.42-1.42.05.04.1.09.14.13.26.22.55.34.82.52.13.08.24.19.37.28-.53.55-1.05,1.1-1.58,1.65-1.04,1.08-2.07,2.17-3.09,3.25-.21-.38-.72-.71-1.05-.95-.29-.21-.68-.44-.75-.82-.06-.31.13-.57.23-.85.11-.32.14-.62.16-.95.04-.56,0-1.37-.77-1.36-.57,0-.96.61-1.31.97-.35.36-.93.7-1.03,1.23-.11.58.44,1.11,1.02.94.03.72,1.42,2.56,2.52,2.84-1.26,1.33-2.52,2.65-3.79,3.97-.37-.55-1.06-1.07-1.34-1.4-.9-1.07.41-1.87.12-2.98-.42-1.58-2.27-.24-2.83.41-.39.44-.89,1.05-.91,1.66-.03.97,1.04,1.1,1.7.67.12.55,1.14,2.22,2.12,2.83-.39.38-.79.73-1.29,1-.67.36-.98,1.07-.62,1.77.51.98,2.1,1.22,2.36-.07ZM88.71,185.07c-.1.03-.2.05-.3.05.07-.19.19-.27.3-.05Z"/>
          <path class="cls-3" d="M130.22,136.64c-1.27,1.18-1.41,3.15-.07,4.36,1.27,1.15,4.13.83,5.1-.6,1.14-1.3.52-3.21-.69-4.22-1.37-1.14-3.13-.65-4.34.47ZM134.06,139.14s0-.02.01-.03c0,.01,0,.02,0,.03,0,0,0,0,0,0Z"/>
          <path class="cls-3" d="M122.37,143.69c-1.15,1.26-.93,3.51.25,4.67,1.21,1.19,3.26.84,4.32-.38,2.4-2.82-2.13-6.97-4.57-4.29Z"/>
          <path class="cls-3" d="M175.98,93.81l8.41-8.3c1.71-2.67,1.54-4.27-.44-5.96-.6-.52-1.45-1.31-2.28-1.36-.58-.04-2.45.86-3.41,1.72l-8.66,8.69c-.29,1.84-.04,2.92.9,3.86,1.95,1.96,4.86,1.5,5.49,1.35Z"/>
        </g>
        <g>
          <path class="cls-2" d="M175.81,83.9c.14-.14.31-.3.51-.49.14-.13.3-.28.46-.43.65-.62,1.45-1.39,2.14-1.64.34-.13.96.02,1.31.45.41.5.34,1.25-.18,2.12-.28.46-.93,1.2-1.99,2.26-.42.42-.85.84-1.24,1.21-.31.31-.6.58-.83.81,0,0-.18.19-.18.19-.68.68-1.44.95-2.04.76-.47-.15-.79-.57-.9-1.18-.11-.64.63-1.72,1.42-2.5l.15-.14c.15-.14.29-.27.41-.39.2-.2.36-.36.51-.53.15-.15.29-.31.46-.48Z"/>
          <path class="cls-2" d="M177.77,85.88h0c-.42.42-.85.83-1.23,1.21-.32.31-.6.59-.83.82l-.19.19-.04.04c-.53.53-1.14.77-1.6.62-.41-.13-.57-.54-.62-.87-.06-.35.37-1.22,1.3-2.15.05-.05.1-.09.14-.14.16-.15.29-.28.41-.4.2-.2.36-.37.52-.54.14-.15.29-.3.45-.47.14-.14.3-.3.5-.48.14-.13.3-.28.47-.44.59-.56,1.39-1.33,2-1.56.16-.06.61.02.86.33.39.48.03,1.24-.22,1.65-.39.65-1.55,1.81-1.93,2.19M178.34,86.45c.86-.86,1.69-1.75,2.05-2.34,1.49-2.45-.65-3.51-1.61-3.15-.95.35-2,1.49-2.73,2.16-.21.19-.38.35-.53.5-.36.36-.59.63-.98,1.01-.12.12-.24.24-.39.38-.05.05-.1.1-.16.15-.68.68-1.69,1.94-1.53,2.86.31,1.79,2.14,2.11,3.58.68.02-.02.03-.03.05-.05.05-.06.11-.12.18-.18.51-.51,1.3-1.25,2.06-2.02h0Z"/>
        </g>
      </g>
    </g>
  </g>
</svg>