<?xml version="1.0" encoding="UTF-8"?>
<svg id="_レイヤー_2" data-name="レイヤー 2" xmlns="http://www.w3.org/2000/svg" viewBox="0 0 252.75 252.75">
  <defs>
    <style>
      .cls-1 {
        fill: #e4b959;
      }

      .cls-2 {
        fill: #fff;
      }

      .cls-3 {
        fill: #cd9e6c;
      }

      .cls-4 {
        fill: #f6e3c6;
      }

      .cls-5 {
        fill: #e7d193;
      }

      .cls-6 {
        fill: #e4cb9a;
      }
    </style>
  </defs>
  <g id="_レイヤー_1-2" data-name="レイヤー 1">
    <g>
      <circle class="cls-2" cx="126.37" cy="126.37" r="126.37"/>
      <g>
        <path class="cls-3" d="M164.17,117.36c-.45-.62-1.05-1.63-1.88-1.78-.85-.15-1.29.69-1.22,1.44-1.16-1.6-2.83-2.7-4.56-3.59-1.81-.93-3.67-1.87-5.65-2.4-3.98-1.08-8.46-1.19-12.46-.18-4.08,1.03-7.81,2.79-11.22,5.24-3.22,2.31-4.64,6.53-5.59,10.25-.56,2.2-.6,4.49-.67,6.75-.06,1.84-.15,3.75,1.12,5.24,2.72,3.2,20.17,1.56,24.7,1.28,4.18-.26,8.49-1.07,12.49-2.31,3.91-1.21,7.03-3.58,7.84-7.78.8-4.13-.42-8.79-2.9-12.15ZM156.71,134.81s-.23.05,0,0h0ZM160.82,129.41c-1.82,2.9-4.99,3.72-8.09,4.51-3.6.91-7.32,1.35-11.01,1.68-3.9.36-7.79.32-11.68-.13-.88-.1-1.77-.21-2.65-.32-.37-.05-.84-.18-1.21-.13-.35.05-.59.33-.95.29-1.3-.18-1.48-2.12-1.42-3.07.22-3.31,1.53-6.74,2.82-9.76,1.21-2.85,3.02-6.02,5.86-7.51,6.23-3.26,14.1-4.02,20.62-1.13,2.84,1.26,5.78,2.75,7.32,5.58,1.59,2.94,2.26,7,.39,9.97ZM162.79,129.71s-.05.1,0,0h0Z"/>
        <path class="cls-6" d="M209.92,130.78c-1.17-1.32-5.22-4.78-5.87-4.85-1.29-.14-.84,1.25-.68,1.89.18.7.54,1.84.46,2.54-.08.74-.94,1.27-1.44,1.77-.74.75-1.42,1.56-2.14,2.33-.56.61-1.28,1.23-1.61,2.01-.39.91.08,1.16.82,1.42.95.34,1.34.53,1.95-.41.97-1.51,2.06-2.92,3.4-4.11.36-.32.75-.71,1.15-.98.57-.39,1.02-.21,1.67-.04.53.14,1.19.38,1.75.27.96-.19,1.17-1.13.53-1.84Z"/>
        <path class="cls-1" d="M42.68,104.67c-1.11,2.04,2.39,1.57,3.43,1.42,3.44-.5,6.59-1.01,10.1-.59,7.58.92,17.47,2.9,21.88,9.69,9.5,14.63,14.74,31.37,23.36,46.47,2.03,3.55,4.6,6.64,7.66,9.35,3.02,2.69,6.79,6.08,10.58,7.56,7.64,2.98,17.23,4.07,25.27,2.57,8.19-1.52,16.53-4.66,23.37-9.45,3.3-2.31,5.84-5.29,8.62-8.15,3.25-3.34,6.95-6.2,10.14-9.6,3.03-3.22,6.24-5.96,9.64-8.78,2.27-1.89,6.15-5.94,3.48-9.15-2.49-2.99-7.66,4.07-9.26,5.49-3.13,2.8-6.18,5.53-9.1,8.48,7.89-14.86-1.18-37.15-13.6-46.86-6.62-5.18-15.38-7.17-23.66-6.91-8.96.28-18.95,2.4-25.72,8.64-7.55,6.95-12.02,17.7-12.96,27.87-3.42-10.84-6.73-21.82-4.29-33.19,1.04-4.82,2.77-9.62,5.97-13.43,3.16-3.77,7.49-5.91,11.5-8.6,1.24-.83,2.9-1.77,1.74-3.28-1.09-1.43-5.34-1.94-7.01-2.3-5.08-1.12-10.4-1.15-15.56-.73-10.84.89-21.57,3.92-31.26,8.89-5.22,2.68-10.01,6.1-14.24,10.16-2.2,2.11-4.25,4.36-6.16,6.73-.89,1.1-4.14,5.65-3.93,7.7ZM114.3,129.08c.22-1.57.3-3.46.87-4.96.48-1.27,1.44-2.18,1.99-3.43,1.22-2.79,3.43-4.37,5.03-6.79,3.4-5.15,10.8-7.8,16.57-8.76,13.2-2.19,27.96,2.52,34.18,15.18,1.59,3.25,2.43,6.91,3.09,10.45.69,3.7,1.5,7.72.6,11.44-1.52,6.26-5.43,12.61-8.88,17.26-3.38,4.55-10.49,7.07-15.85,7.86-6.41.95-12.53-.4-18.53-2.61-1.72-.63-12.3-4.54-14.81-10.99-3.19-8.18-5.44-16.23-4.25-24.66Z"/>
        <path class="cls-5" d="M173.65,126.66c-1.5-5.1-4.63-9.59-8.42-13.27-.17-.17-.35-.32-.53-.47,1.65-1.22,3.29-2.55,4.3-4.32,1.34-2.34,1.29-4.99.41-7.48-1.73-4.9-6.37-9.26-11.87-8.58-1.56.19-11.43,1.34-12.63,10.25-.18,1.34-.27,2.69-.28,4.03-3.39.15-6.84.42-10.02,1.48-1.93.64-8.59,4.34-10.03,5.36-.38-.31-.9-.47-1.45-.57-.24-.08-.48-.17-.73-.23-.76-.17-1.57-.27-2.4-.34-.99-.25-1.96-.52-3.02-.56-2.27-.1-4.5.26-6.69.87-3.48.96-6.06,3.36-7.89,6.31-1.96,2.36-3.23,5.28-3.49,8.34-.27,3.25-.41,6.54-.11,9.79.02.25.07.51.1.76.02,1.08.1,2.18.45,3.08.04.1.09.19.15.28.05.21.08.42.14.62.26.94.71,3.14,1.62,3.9.82,1.86,1.93,3.64,3.17,5.19.84,1.06,1.78,2.08,2.92,2.83.42.28,1.14.71,1.85.95.31.33,4.75.26,6.52-.29.97-.3,1.98-.33,2.91-.78.33-.16.62-.36.91-.57.55,1.01,1.15,1.99,1.81,2.93,1.55,2.21,3.56,4.09,6.13,3.97.19.47,3.15.27,3.99.1.32.36.68.68,1.1.94.11,2.18.24,4.34.21,6.53-.03,2-.07,3.99-.2,5.98-.11,1.59-.01,3.2,1.56,4.02,1.26.65,3.32.86,4.5-.08,1.32-1.06.92-3.07.66-4.51.01.08.03.16.04.24-.66-2.84-1.32-5.71-1.92-8.57-.23-1.08-.4-2.16-.57-3.25.16-.08.32-.14.47-.24.76-.51,1.32-1.3,1.68-2.18.04,0,.09-.01.13-.02.34.6.82,1.13,1.47,1.53.4.24.79.4,1.18.51,0,.37.02.72.02.98-.02,1.78,0,3.56.04,5.35.04,1.83.03,3.7.31,5.51.15,1.01.65,3.17,1.67,3.67.6.29,1.46.19,2.28.01.79.11,1.58.04,1.88-.47,1.24-.3,2.28-.66,2.26-2.19-.03-1.47-.69-3.03-1.18-4.39-.63-1.74-1.26-3.48-1.93-5.21-.17-.43-.81-2.59-1.62-3.95.84-.62,1.52-1.52,1.96-2.53.37-.05.74-.09,1.11-.14.43.82,1.12,1.45,1.94,1.84.04.44.09.82.1,1.06.07,1.86.17,3.72.36,5.58.15,1.47.3,2.96.58,4.42,0,.96.05,1.91.32,2.74.28.86.95,1.23,1.72,1.34.01,0,.03.02.04.02.95.45,3.2.35,4.11-.21.43-.27.85-.81.79-1.34.28-.34.45-.78.41-1.44-.08-1.64-.75-3.35-1.26-4.89-.65-1.94-1.38-3.86-1.97-5.83-.12-.4-.25-1.38-.51-2.24.48-.54.81-1.21,1.03-1.94.24-.03.48-.05.73-.08-.53,1.22-.59,2.58,0,3.87,1.44,3.16,5.75,3.74,8.04,1.21,1.43-1.59,2.11-3.93,1.21-5.95-.25-.57-.63-1.1-1.11-1.51.05-.04.1-.07.15-.11.9-.66,1.83-1.25,2.68-1.98,1.63-1.4,3.27-2.82,4.48-4.6,1.22-1.79,2.05-4.15,2.35-6.29.68-4.76.26-10.16-1.1-14.77ZM147.92,154.85s0-.04,0-.06c0,0,.02,0,.02,0,0,0,0,0,0,0,0,.05,0,.02,0,0,.06,0,.12-.01.18-.02,0,.01,0,.03,0,.04-.06.01-.13.02-.19.03ZM133.62,113.59c.94-.45,1.89-.95,2.88-1.28,1.44-.48,3.03-.49,4.53-.6,1.28-.09,2.55-.22,3.83-.34.17,1.53.4,3.05.68,4.57.8,4.39,1,8.86,1.52,13.28.53,4.46,1.2,8.91,1.52,13.39.14,2.07.27,4.14.48,6.2-.18.03-.36.06-.54.09.06-.76-.02-1.59-.08-2.09-.31-2.76-.66-5.52-.79-8.31-.15-3.08-.21-6.09-.63-9.16-.44-3.28-.92-6.58-1.76-9.78-.3-1.15-.63-2.43-1.53-3.26-.55-.51-1.23-.79-1.93-.86-1.35-.93-3.08-.91-4.74-.52-2.62.61-3.96,3.43-4.04,5.92-.12,3.73.72,7.56,1.05,11.27.34,3.82.87,7.55,1.62,11.31.38,1.91.75,3.83,1.08,5.75.08.49.16.98.24,1.48-.35.06-.71.11-1.06.17-.43-3.56-.68-7.13-1.34-10.67.01.07.03.13.05.2-.08-1.18-.43-2.4-.62-3.57-.3-1.81-.58-3.62-.89-5.43-.04-.25-.08-.49-.11-.74-.03-.3-.08-.6-.11-.91-.31-2.8-.71-5.57-1.36-8.31-.22-.93-.48-2.54-1.38-3.08-.02-.01-.04-.01-.06-.02-.34-.45-.82-.91-1.27-1.29-.12-.18-.24-.35-.36-.53,1.67-1.1,3.5-2.1,5.12-2.88ZM133.18,113.79s.04-.02.04-.02c0,0-.01,0-.04.02ZM149.99,101.65c1.27-2.02,3.33-3.91,5.6-4.56,7.76-2.22,10.75,6.61,8.47,9.89-1.03,1.48-1.45,2.56-2.89,3.62-.9-.46-1.83-.87-2.76-1.26-1.24-.52-2.51-1-3.81-1.35-.31-.08-.77-.24-1.26-.37-1.5-.56-3.06-.91-4.68-.93.02-1.77.35-3.49,1.33-5.05ZM146.11,154.99s0,0,0,0c.01.07,0,.03,0,0ZM127.97,157.29s.03,0,.05,0c.01,0,.03,0,.04.01-.03,0-.05,0-.07,0,0,0-.01,0-.02-.01ZM102.67,126.8c.6-2.64,2.27-5.44,4.22-7.33,1.96-1.9,5.11-2.71,7.7-3.33.79-.19,6.29.2,7.05.4-.55.62-1.27,1.17-1.68,1.87-.42.71-.93,1.61-1.19,2.43-1.54-1-3.31-1.62-5.17-1.28-1.26.23-2.54.56-3.66,1.2-.44.25-1.05.57-1.36.99-.28.39-4.77,7.06.39,12.32,2.27,2.32,4.63,4.14,7.4,5.62.1.17.21.34.32.5.02.22.02.44.05.66.18,1.57.41,3.24.86,4.76.26.86.67,1.65.92,2.52-.17.17-.34.35-.52.51-.33.22-.69.4-1.05.59-.56.09-1.21.35-1.56.37-1.47.07-2.85.39-4.34.34-.86-.03-5.04-3.44-5.1-3.71-.13-.57-1.81-3.15-2.19-3.95-.83-1.74-1.38-4.33-1.51-6.52-.07-1.2-.09-2.4-.14-3.59-.02-.38-.04-.86-.22-1.21.02-.17.03-.33.05-.5.53-1.1.62-3.09.74-3.65ZM113.95,123.57c.68-.2,1.43-.13,2.12-.02.65.11,1.3.31,1.9.6-.64,2.32-1.01,4.69-1.4,7.09-.16,1.01-.18,1.96-.14,2.93-1.78-1.42-3.04-1.47-4.66-3.08-3.04-3.01.62-6.83,1.65-7.33-.06.02-.12.06-.18.1.25-.04.48-.22.72-.29ZM139.55,143.17c-1.14-6.63-2.08-13.18-2.36-19.91-.05-1.23-.05-2.71.8-3.7.13-.16.32-.32.53-.46.54.15,1.1.26,1.41.41.81.41.73,1.11,1.05,1.86.1.24.27.42.46.54.38,1.06.71,2.13.95,3.23.6,2.73.87,5.51,1.14,8.29.45,4.64.97,9.29,1.24,13.94.03.47.03,1.37.23,2.09-.29.04-.57.09-.86.13-1.16.16-2.33.33-3.49.51-.35-2.31-.71-4.61-1.1-6.91ZM153.4,148.14c-.13-1.26-.22-2.52-.35-3.78-.52-5.17-.72-10.38-1.29-15.54-.56-5.08-1.33-10.16-2.2-15.19-.12-.67-.25-1.36-.37-2.06,1.23.07,2.39.43,3.54.88,1.5.59,2.89,1.28,4.25,2.04-1.86,2.06-2.34,4.49-2.97,7.14-1.22,5.18-1.18,11.1.04,16.28.06.29.1.59.15.88-.26.59-.02,1.28.06,1.9.19,1.41.37,2.82.63,4.22-.01-.08-.02-.15-.04-.23.19,1.08.28,2.18.41,3.28-.62.06-1.24.13-1.86.21,0,0,0-.02,0-.03ZM130.58,151.69c-.38-2.44-.66-4.91-1.11-7.34.01.08.03.15.04.23-.55-3.06-.99-6.14-1.5-9.21-.18-2.2-.44-4.42-1.1-6.52-.08-.25-.17-.5-.26-.74-.09-.36-.24-.76-.45-1.06-.69-1.45-1.65-2.8-2.87-3.69.72-1.66,1.43-3.28,2.52-4.63.01.01.04.03.05.04.2.17.38.36.56.57.58.86,1.05,1.81,1.42,2.78,1.37,3.55,2.01,7.44,2.57,11.19.58,3.92.83,7.89,1.34,11.82.24,1.88.55,3.75.8,5.63.02.16.03.38.05.61-.68.11-1.36.22-2.05.33ZM124.07,143.7c-.51-1.48-1.3-2.93-2.45-4.01,0-.79-.93-1.75-1.35-2.19-.04-.04-.08-.08-.12-.12.2-3.2.71-6.46,1.58-9.55.17.1.34.2.5.3.64,1.75,1.03,3.62,1.49,5.43,1.06,4.22,2.04,8.44,2.74,12.73.32,1.95.54,3.9.7,5.87-.24.03-.47.08-.68.15-.22-.22-.44-.45-.65-.69-.78-.92-1.37-1.91-1.96-2.91,0,0,0-.01,0-.02.75-1.63.76-3.32.18-5ZM159.45,147.27c-.09-.43-.18-.82-.21-1.1-.16-1.34-.33-2.69-.45-4.03-.14-1.52-.13-3.03-.54-4.51-.71-2.58-.5-5.5-.57-8.16-.08-3.12-.11-6.32.91-9.31.43-1.27,3.14-2.44,3.81-1.77,1.17,1.18,4.79,8.33,4.98,8.91,1.2,3.55,2,7.24,1.59,11-.04.41-.11.83-.18,1.24-1.18,1.81-2.81,3.46-4.32,4.83-1.43,1.3-3.18,2.29-5.02,2.9ZM128.03,116.32c.06.04.09.06.09.06,0,0-.03-.02-.09-.06ZM146.11,155s0,.03,0,0h0ZM163.68,155.68c.67.42.96,1.13,1.04,1.9.14,1.42-.65,3.1-1.94,3.78-1.46.77-3.37.07-4.11-1.37-.36-.71-.44-1.59-.13-2.33.2-.49.59-.8.94-1.15.23-.03,3.33-.78,3.51-.84.13-.04.25-.1.37-.16.11.05.21.11.31.17Z"/>
        <path class="cls-4" d="M107.47,74.69c2.14.19,4.27.51,6.41.71,1.76.16,3.53.46,5.15,1.18.57.25,1.25.64,1.78.09.6-.62.04-1.22-.52-1.55-1.66-.97-3.94-1.33-5.82-1.5.08,0,.15.02.23.02-4.86-.57-9.75-1.18-14.66-1.01-5.21.18-10.46,1.09-15.47,2.49-2.57.72-5.02,1.72-7.5,2.68-2.37.92-4.72,1.81-7.01,2.92-4.69,2.27-9.09,4.92-13.27,8.03-1.14.85-2.35,1.65-3.4,2.61-.96.89-1.71,1.97-2.57,2.95-1.51,1.73-3.27,3.34-4.39,5.38.04-.05.08-.11.12-.16-.72,1.02-1.34,2.1-1.82,3.25-.32.78-1.16,2.4-.82,3.26.54,1.37,1.7.16,1.93-.63.4-1.35.78-2.58,1.52-3.8,1.45-2.39,3.33-4.39,5.13-6.49,1.78-2.07,3.66-3.64,5.85-5.26,4.38-3.23,9.22-6.05,14.18-8.28,4.89-2.2,10.13-4.18,15.36-5.4,6.4-1.5,13.03-2.07,19.58-1.48Z"/>
      </g>
    </g>
  </g>
</svg>