<?xml version="1.0" encoding="UTF-8"?>
<svg id="_レイヤー_2" data-name="レイヤー 2" xmlns="http://www.w3.org/2000/svg" viewBox="0 0 252.75 252.75">
  <defs>
    <style>
      .cls-1 {
        fill: #6c5d41;
      }

      .cls-2 {
        fill: #fff;
      }

      .cls-3 {
        fill: #cd9e6c;
      }

      .cls-4 {
        fill: #846f4a;
      }

      .cls-5 {
        fill: #e7d193;
      }

      .cls-6 {
        fill: #ded3c5;
      }

      .cls-7 {
        fill: #cabcae;
      }
    </style>
  </defs>
  <g id="_レイヤー_1-2" data-name="レイヤー 1">
    <g>
      <circle class="cls-2" cx="126.37" cy="126.37" r="126.37"/>
      <g>
        <path class="cls-5" d="M90.77,185.05c-1.42.02-2.9,0-4.29.31-.65.14-.64.3-.63.92.02.74.08,1.49.18,2.22.19,1.37.55,2.72.99,4.03.37,1.09.84,1.83,2.03,2.05.87.16,2.2.34,2.97-.21.87-.61.65-1.87.6-2.78-.08-1.46-.15-2.92-.2-4.38-.02-.55.03-1.37-.34-1.83-.33-.41-.84-.34-1.31-.33Z"/>
        <g>
          <path class="cls-7" d="M155.62,114.96c-.49.51-1.01,5.78-1.37,7.58-.76,3.85-1.33,7.74-2.03,11.6-1.4,7.69-3.48,15.31-5.5,22.86-.53,1.98-1.16,3.92-1.7,5.9-.25.9,3.08,6.07,3.54,6.58.55.6,3.28-3.77,3.82-5.44,1.36-4.23,8.73-33.95,9.48-38.27.41-2.33.76-4.68.91-7.04.08-1.21-6.74-4.19-7.15-3.76Z"/>
          <path class="cls-7" d="M117.77,158.83c-.62-1.7-1.12-3.47-1.6-5.22-1-3.67-1.72-7.41-2.32-11.16-.44-2.77-.81-5.55-1.24-8.31-.23-1.44-9.11-4.99-9.18-4.56-.16,1.02.01,2.13.07,3.16.22,3.98,1.25,7.79,2.36,11.59,1.09,3.75,1.85,7.56,2.88,11.32.24.89.51,1.77.79,2.65.22.69,2.06,3.03,2.53,2.34.42-.61,5.94-1.16,5.71-1.8Z"/>
        </g>
        <path class="cls-3" d="M74.23,77.63c.18,2.27.57,4.45,1.03,6.69,1.01,4.84,1.98,9.68,3.37,14.44,1.34,4.61,3.11,8.8,5.57,12.93,2.35,3.95,4.77,8.12,7.89,11.53,2.96,3.23,6.85,5.86,10.8,7.72,4.36,2.06,8.99,3.58,13.67,4.76,2.32.59,4.66,1.16,7.05,1.42,2.47.28,4.97.17,7.45.02,4.48-.27,8.94-.86,13.1-2.65,4.11-1.77,7.86-4.49,11.23-7.4,6.98-6.01,12.28-13.41,15.74-21.94,1.81-4.46,2.85-9.05,4.12-13.68,1.07-3.93,2.35-7.95,1.84-12.08-.14-1.14-102.91-2.33-102.86-1.76Z"/>
        <path class="cls-1" d="M164.97,175.83c-.67-.54-.87-.2-.86-1.04,0-.48.75-1.45.96-1.9,3.72-8.03,6.72-16.21,9.13-24.73,2.64-9.33,10.75-46.51,12.08-55.8.95-6.62,3.42-21.42-6.32-23.28.98.25-.15-7.62.92-7.6,0,0-106.46,3.95-108.11,2.46.12,2.11.34,4.21.57,6.3-1.94-.87-4.1,1.11-5.18,2.52-1.84,2.4-2.32,5.62-2.56,8.55-.56,6.55.76,13.04,2.1,19.41,2.74,13.04,6.31,25.89,10.64,38.49,2.12,6.15,4.7,12.14,7.3,18.1,2.4,5.51,6.18,10.94,7.44,16.79.59,2.75,1.76,5.38,2.77,8,.9,2.33,65.88,14.58,70.32,15.42,2.32.44,4.65.82,6.99,1.18,1.11.17,2.25.26,3.34.56.77.21,5.9-5.52,7.01-7.52.69-1.26,1.77-2.79,1.39-4.32-.48-1.9-18.7-10.63-19.91-11.6ZM160,170.68c-3.33-11.69-21.51-15.04-31.7-14.51-6.32.33-12.68.63-18.79,2.36-5.76,1.63-10.47,5.55-13.82,10.42-3.42-7.75-5.96-15.83-8.79-23.8-2.84-8-6.11-15.84-8.79-23.89-2.65-7.97-4.88-16.26-5.99-24.6-.54-4.06-.65-8.1-.37-12.18.17-2.58-.14-7.46,2.55-8.97-.19,4.06,2.39,6.8,6.03,8.44,5.51,2.48,9.72,3.58,14.59,4.66,10.68,2.36,21.49,3.55,32.42,3.42,10.55-.12,20.62-1.71,30.93-4.2,4.87-1.18,9.46-2.94,13.9-5.26,1.69-.89,3.77-1.71,5.16-3.05,1.56-1.5,1.45-3.49,1.8-5.48,5.5,1.01,3.07,11.9,2.51,15.31-1.53,9.32-3.65,18.64-5.69,27.86-3.98,18.01-8.87,36.44-15.97,53.49Z"/>
        <path class="cls-6" d="M72.87,62.37c.05,1.96,6.63,7.07,41.34,8.68,3.96.09,61.42,0,66.67-9.56,5.24-10.02-45.49-10.02-45.49-10.02,0,0-60.18-1.64-62.52,10.9Z"/>
        <path class="cls-4" d="M182.68,192.8c-2.46-1.25-7.45-4.14-9.86-5.47-3.5-1.93-5.03-2.45-6.37-3.53-1.14-.91-2.85-2.72-2.98-4.3-.08-1.01.58-1.47.96-2.3.46-1,1.13-4.51,1.23-5.59.16-1.72-.24.88-2.3,2.42-1.27.95-2.42,1.05-3.77,2.03-3.99,2.88-9.91,3.84-14.64,4.77,3.35-10.05,5.21-20.52,7.89-30.75,2.68-10.25,5.53-20.56,6.05-31.19.5-10.4-1.17-20.74-4.43-30.61-.75-2.27-2.44-10.35-5.39-10.2-1.52.08-3.83.12-4.11,1.76-.34,1.98.67,4.97,1.06,6.93,1.87,9.39,4.26,19.79,4.46,31.33.06,3.13-6.09,32.7-8.09,42.41-.99,4.79-2.07,9.54-3.42,14.24-.51,1.78-.64,4.42-1.56,6.03-1.06,1.85-3.92,1.34-5.83,1.45-2.26.13-4.52.26-6.78.21-1.66-.04-4.72.42-6.15-.47-1.42-.89-1.5-3.51-1.9-5.01-.61-2.29-1.28-4.56-1.98-6.82-2.84-9.13-4.84-18.31-6.53-27.71-3.51-19.51-5.93-39.6-2.63-59.32.29-1.75.24-3.19-1.64-3.73-.61-.17-1.48-.21-2.12-.21-.55,0-.97.14-1.49.17-.2.13-.4.26-.6.39-.09-.12-.18-.24-.28-.35-3.2.56-4.07,7.17-4.71,10.06-2.05,9.35-1.34,19.29-.2,28.71,1.33,10.96,4.1,21.68,7.04,32.3,2.81,10.15,5.68,20.79,10.18,30.35-3.34-.94-6.72-1.93-9.83-3.5-1.32-.66-2.42-1.42-3.4-2.53-.54-.62-1.62-2.59-2.62-1.37.19-.52-7.94-.42-8.64-.38-3.41.18-6.19-.34-6.08,4.01.06,2.41-.49,6.84,2.16,8.01,1.29.57,13.37-.02,15.25,1.48,1.43,1.15,2.24,2.4,3.88,3.27,3.85,2.02,8.11,3.25,12.34,4.16,8.72,1.88,17.01,1.88,25.83.8,2.09-.26,4.78-1.32,6.82-1.11,1.89.2,24.04,6.25,31.95,7.72l3.23-8.55Z"/>
      </g>
    </g>
  </g>
</svg>