<?xml version="1.0" encoding="UTF-8"?>
<svg id="_レイヤー_2" data-name="レイヤー 2" xmlns="http://www.w3.org/2000/svg" viewBox="0 0 252.75 252.75">
  <defs>
    <style>
      .cls-1 {
        fill: #fff;
      }

      .cls-2, .cls-3 {
        fill: #f6e3c6;
      }

      .cls-4 {
        fill: #e7d193;
      }

      .cls-3 {
        stroke: #f6e3c6;
        stroke-miterlimit: 10;
        stroke-width: .84px;
      }

      .cls-5 {
        fill: #5e584d;
      }
    </style>
  </defs>
  <g id="_レイヤー_1-2" data-name="レイヤー 1">
    <g>
      <circle class="cls-1" cx="126.37" cy="126.37" r="126.37"/>
      <g>
        <path class="cls-4" d="M75.73,169.67c-.53-.13-1.05-.3-1.58-.43-.12-.03-.39-.03-.48-.08-.14-.09-.18-.36-.36-.48.13.15.25.31.36.48-.68-.11-.96-1.14-1.73-.55-.61.47-.3,1.74-.25,2.41-.23-3.02.87,3.82,2,4.6,1.76,1.21,3.14.88,3.5-.72.35-1.55.53-4.75-1.47-5.22Z"/>
        <path class="cls-4" d="M133.09,206.6c-.18,0-.32.29-.49.27-.12-.02-.18-.21-.28-.28-.3-.2-.68-.16-1.01-.16-.51,0-1.29.07-1.17,1.01-.17-.14-.09-.7-.2-.9-.19-.36-.63-.43-.89-.16-.41.44-.2,1.35-.13,1.92.2,1.57-.43,4.38,1.04,5.17.64.35,1.93.26,2.54.11.79-.19.52-1.55.8-2.49.25-.81,1.11-4.46-.21-4.49Z"/>
        <path class="cls-4" d="M177.91,171.21c-.38.03-.8.11-1.18.03-.36-.08-.63-.39-1.03-.35-.76.08-.69.93-.63,1.49.13,1.16.25,2.99,1.41,3.63,1.58.87,2.41-.99,2.68-2.21.16-.69.46-1.56.28-2.27-.17-.68-1.11-.99-1.53-.32Z"/>
        <path class="cls-1" d="M95.17,143.48c-1.19.02-.69,1.57.27,1.7.74.09,1.86-.68,2.51-.95.97-.42,2.22-1.3,3.24-1.5,1.18-.23,2.53.8,3.56,1.31-1.78,0-3.7.72-4.62,2.05-.84,1.22-1.3,2.69.84,2.74,1.96.05,4.08-1.07,5.88-1.71.74-.26,1.8-.91,2.5-.84l2.44,1.2-6.43,1.93s-.31,4.75-.23,6.22c-.18-.43-41.23-24.71-41.23-24.71.15-.03,11.04-2.99,11.04-2.99l1.43.76c-1.14.07-6.17,1.13-6.53,2.21-.79,2.37,4.22.29,4.22.77-.74,0-1.51.68-1.16,1.39.44.92,1.83.28,2.49.08,1.61-.49,4.88-1.96,6.37-1.02-.85-.35-5.11,1.1-4.94,2.36.07.46.43.45.67.71,0-.05.82.56.57.46,1.09.45,1.61.05,2.64-.44-.32.45.18,1.3.55,1.53.81.51,2.32-.26,3.1-.48.83-.23,1.77-.6,2.59-.77.09-.13.18-.26.26-.38l.6.38c.54.13,1.4.68,1.91.93-1.04,0-3.2.57-3.93,1.37-.38.43-.66,1.1-.31,1.65.52.79.91.21,1.61.23,1.52.03,2.39.03,3.97-.32,1.54-.33,2.78-.75,4.18-.03-.96-.23-3.45,1.14-3.37,2.24.1,1.41,2.05,1.36,3.06,1.3-.05.25.03.46.24.62Z"/>
        <path class="cls-5" d="M194.68,100.49c-.19-6.04-8.02-8.47-8.02-8.47-5.01-.98-10.2-.6-15.24.08,6.3-1.58,18.96-8.36,13.69-16.51-5.14-7.93-17.58-6.27-25.47-5.34-7.45.88-20.69,2.36-21.42-8.2-.33-4.73.41-9.79,1.27-14.42.38-2.07,2.47-6.78.28-8.32-1.36-.97-25.77,1.09-28.03,1.54-1.88.38-2.81,1.94-3.92,3.35-1.61,2.06-37.14,61.45-37.38,62.89,0,.03,0,16.98,0,16.98l-12.91,3.16.7,10.87,9.16,6.07s.51,3.48.9,5.77c1,5.93,2.09,11.84,3.05,17.78.33,2.06.77,4.16,3.07,4.79,2.46.68,3.35-1.39,3.32-3.46-.06-5.91.06-11.72.28-17.63l10.5,7.9.37,18.17v.12l-5.3.67v5.14l14.31,11.59,7.83-2.97.04-7.47-3.83-2.39.1-3.35.3-9.8,5.91,3.38,8.73-1.56,2.62,10.02s3.7-.82,5.12-1.07c.29,4.71,2.43,22.14,3.3,26.58.68,3.47,5.3,3.67,5.81-.17.6-4.58,1.02-24.13,1.43-28.71l8.01-2.52.57-9.18c3.7-1.66,9.55-1.75,12.83-8.05,1.2-2.3,1.46-4.96,2.32-7.4.8-2.28,1.99-4.44,3.36-6.42,2.56-3.69,6.08-6.6,10.19-8.42.5,7.12,1.31,14.19,1.73,21.31.21,3.55.44,7.09.56,10.65.07,2.02,1.29,5.49,4.64,4.07,2.28-.96,3.25-32.61,3.74-39.85.26.93,7.09-2.99,7.8-3.61,3.04-2.7,4.24-8.48,4.23-10.57,0-2.96-.44-14.32-.54-17.02ZM99.03,180.41l-5.71-3.2-1.91.21-.13-16.55,7.76,5.89c.21,2.91.13,8.99.06,11.95-.03.96-.04,1.6-.06,1.69ZM105.36,149.42s-.31,4.75-.23,6.22c-.18-.43-41.23-24.71-41.23-24.71.15-.03,11.04-2.99,11.04-2.99l1.43.76c-1.14.07-6.17,1.13-6.53,2.21-.79,2.37,4.22.29,4.22.77-.74,0-1.51.68-1.16,1.39.44.92,1.83.28,2.49.08,1.61-.49,4.88-1.96,6.37-1.02-.85-.35-5.11,1.1-4.94,2.36.07.46.43.45.67.71,0-.05.82.56.57.46,1.09.45,1.61.05,2.64-.44-.32.45.18,1.3.55,1.53.81.51,2.32-.26,3.1-.48.83-.23,1.77-.6,2.59-.77.09-.13.18-.26.26-.38l.6.38c.54.13,1.4.68,1.91.93-1.04,0-3.2.57-3.93,1.37-.38.43-.66,1.1-.31,1.65.52.79.91.21,1.61.23,1.52.03,2.39.03,3.97-.32,1.54-.33,2.78-.75,4.18-.03-.96-.23-3.45,1.14-3.37,2.24.1,1.41,2.05,1.36,3.06,1.3-.05.25.03.46.24.62-1.19.02-.69,1.57.27,1.7.74.09,1.86-.68,2.51-.95.97-.42,2.22-1.3,3.24-1.5,1.18-.23,2.53.8,3.56,1.31-1.78,0-3.7.72-4.62,2.05-.84,1.22-1.3,2.69.84,2.74,1.96.05,4.08-1.07,5.88-1.71.74-.26,1.8-.91,2.5-.84l2.44,1.2-6.43,1.93Z"/>
        <path class="cls-4" d="M91.43,188.31c.34-.28.8-.41.68-.96-.05-.26-.23-.43-.45-.57-.57-.36-1.39-.38-2.04-.4-1.46-.04-3.1.12-4.42.78-.7.35-1.42,1.02-1.21,1.89.18.75,1.01.96,1.69,1.03.76.07,1.54-.02,2.28-.17,1.32-.28,2.43-.76,3.47-1.59Z"/>
        <path class="cls-4" d="M86.68,185.41c.55-.13,1.29-.26,1.36-.94.08-.66-.55-.98-1.11-1.04-.77-.07-1.65.14-2.41.26-.94.14-1.89.33-2.77.7-1.41.59-1.7,2.44.08,2.71.83.13,1.7-.04,2.46-.39.82-.38,1.49-1.08,2.39-1.3Z"/>
        <path class="cls-4" d="M96.54,190.7c-.61-.48-1.46-1.03-2.22-.99-.94.05-1.89.2-2.79.48-1.17.37-4.15,1.83-2.55,3.4,1.12,1.1,3.61.36,4.83-.1.84-.32,4.58-1.35,2.73-2.79Z"/>
        <path class="cls-2" d="M170.48,91.43c-2.74,1.12-76.02,10.66-83.13,11.94-3.12.56-6.25,1-9.37,1.53-1.51.25-3.02.55-4.54.7-.77.07-2.61-.16-3.03.75-1.05,2.28,5.75.52,6.55.4,3.72-.57,7.46-1.14,11.17-1.81,13.82-2.51,79.57-11.23,81.5-11.6.33-.06,1.53-.15,1.75-.59.29-.58,0-1.64-.88-1.32ZM167.86,91.9q-.09.01,0,0h0Z"/>
        <path class="cls-4" d="M189.56,103.89c-.31-3.24-3.79-5.36-6.24-6.17-2.73-.9-1.75-.9-12.87,0-8.62.7-88.04,13.3-87.87,14.3.09.54,42.7,23.84,44.33,23.87,2.14.03,4.76,0,6.9,0,7.59-.03,13.75-2.67,19.22-8.37,2.97-3.1,4.67-7.15,7.64-10.2,2.86-2.93,6.66-4.96,10.56-6.11,3.96-1.17,8.85-.47,12.54-2.33.67-.34,5.79-1.37,5.79-4.99Z"/>
        <path class="cls-3" d="M142.01,135.9c.09,1.06-32.51-65.97-32.85-66.44-.95-1.34-1.67-.33-1.86.35-.06.21,1.95,4.18,2.24,4.91,1.44,3.72,27.21,60.95,27.69,61.83.17.31.41.73.79.81.45.1,2.37-.51,2.74-.56,1-.14,1.57-.23,1.26-.9ZM133.81,128.55s.04.09,0,0h0Z"/>
        <path class="cls-5" d="M142.01,135.9c.09,1.06-32.51-65.97-32.85-66.44-.95-1.34-1.67-.33-1.86.35-.06.21,1.95,4.18,2.24,4.91,1.44,3.72,27.21,60.95,27.69,61.83.17.31.41.73.79.81.45.1,2.37-.51,2.74-.56,1-.14,1.57-.23,1.26-.9ZM133.81,128.55s.04.09,0,0h0Z"/>
      </g>
    </g>
  </g>
</svg>