<?xml version="1.0" encoding="UTF-8"?>
<svg id="_レイヤー_2" data-name="レイヤー 2" xmlns="http://www.w3.org/2000/svg" viewBox="0 0 252.75 252.75">
  <defs>
    <style>
      .cls-1 {
        fill: #e4b959;
      }

      .cls-2 {
        fill: #fff;
      }

      .cls-3 {
        fill: #f6e3c6;
      }

      .cls-4 {
        fill: #e4cb9a;
      }
    </style>
  </defs>
  <g id="_レイヤー_1-2" data-name="レイヤー 1">
    <g>
      <circle class="cls-2" cx="126.37" cy="126.37" r="126.37"/>
      <g>
        <path class="cls-4" d="M106.13,150.41c.81-.33.26-1.16-.34-1.29-.67-.15-1.39,0-2.06.07-.98.11-1.99.18-2.98.17-.4,0-.84.1-1.05-.28-.24-.43-.16-.89-.62-1.23-.97-.71-1.73.51-1.93,1.34-.23.95-.18,2.04-.05,3,.1.74.33,2.09,1.32,2.07.43-.01.76-.31.96-.66.13-.23.15-.52.27-.74.16-.28-.1-.11.28-.29.14-.06.3-.1.45-.14,1.36-.42,2.81-.41,4.21-.49.54-.03,1.32.04,1.77-.31.52-.39.3-.99-.24-1.23Z"/>
        <path class="cls-1" d="M220.38,139.82c-1.74-3.45-6.26-4.21-9.73-4.36-4.77-.21-124.82.84-130.09.98,0,0,.17-10.71-.03-16h4.25c1.47,0,2.16.02,3.63.03,3.22.03,6.46-.12,9.67.25,3.04.36,6.01,1.19,8.97,1.92,2.87.71,5.2,1.48,7.33,3.63,1.97,1.99,3.81,4.23,4.75,6.9.27.78.44,2.12,1.37,2.3,1.29.26,2.13-1.49,2.56-2.4,2.54-5.37,4.34-11.87,4.01-17.83-.18-3.27-1.16-6.39-2.36-9.41-.36-.91-2.36-7.46-3.61-6.85-.19.09-.62-1.15-1.49-.01-.88,1.14-1.15,2.98-1.82,4.26-1.44,2.75-3.9,4.68-6.47,6.32-2.81,1.78-5.85,3.33-9.18,3.8-3.63.51-7.36.35-11.01.54-7.35.38-14.69,1.12-22.04,1.57-7.37.45-14.89.24-22.23,1.04-1.29.14-2.47.07-3.72.5-1.5.51-2.99,1.11-4.34,1.93-2.57,1.58-4.73,3.93-6.03,6.65-2.97,6.17-.5,12.41,5.49,15.52,3.1,1.6,6.5,1.54,9.89,1.33,3.66-.23,41.59-.88,45.74-1.04,4.2-.16,29.96.07,29.96.07,0,0-.06,5.13.04,6.36-2.51.06-12.63-.49-15.18-.43-1.88.04-3.8,1.23-3.49,3.37.22,1.5,1.43,2.79,2.93,2.35.68-.2,3.92-.67,4.95-.61,2.63.14,96.83-.91,102.12-1.9,5.05-.95,7.47-6.22,5.16-10.79ZM39.02,134.58c-2.04-1.28-1.93-3.98-1.14-5.96.95-2.38,3.22-3.84,5.56-4.66l.11,12.5c-1.59-.4-3.14-1.01-4.53-1.88ZM47.25,137c-.26,0-.21-8.21-.2-8.8,0-1.51-.02-3.02.05-4.52.04-.93.14-1.17,1.11-1.41,1.71-.43,3.69-.21,5.44-.33.02,5.09.34,10.18.52,15.27-2.3-.22-4.61-.03-6.92-.2ZM76.59,136.55l-18.19.34c-.09-3-.48-15.56-.48-15.56,0,0,12.23-.34,18.56-.77l.1,15.98ZM134.78,148.01l-7.74-.19s-.07-5.24-.13-6.57l7.87-.23v6.99ZM214.26,146.42c-2.92.93-31.45,1.2-37.81,1.26-12.65.13-23.69-.15-36.33.13l-.24-7.22s71.81-.08,74.11-.29c2.69-.24,3.53,2.46,3.26,3.79-.29,1.4-1.77,1.94-2.98,2.33Z"/>
        <path class="cls-3" d="M125.35,109.67c-.97-3.4-1.82-7.23-3.9-10.18-.25-.36-.66-.95-1.15-.98-1.38-.07-.04,1.77.2,2.16,1.6,2.58,2.47,5.52,3.27,8.42.4,1.46.91,2.89,1.19,4.38.3,1.6.29,3.23.12,4.84-.33,3.17-1.09,6.33-1.92,9.41-.39,1.45-.9,2.82-1.59,4.15-.35.67-.77,1.29-1.15,1.94-.25.42-.47,1.05.17,1.27.78.26,1.36-.97,1.64-1.5.56-1.06,1.11-2.13,1.54-3.24,1.27-3.27,1.93-6.9,2.46-10.36.26-1.7.42-3.43.28-5.15-.15-1.77-.67-3.46-1.16-5.16Z"/>
      </g>
    </g>
  </g>
</svg>