<?xml version="1.0" encoding="UTF-8"?>
<svg id="_レイヤー_2" data-name="レイヤー 2" xmlns="http://www.w3.org/2000/svg" viewBox="0 0 252.75 252.75">
  <defs>
    <style>
      .cls-1 {
        fill: #e4b959;
      }

      .cls-2 {
        fill: #fff;
      }

      .cls-3 {
        fill: #cd9e6c;
      }

      .cls-4 {
        fill: #f6e3c6;
      }

      .cls-5 {
        fill: #e4cb9a;
      }
    </style>
  </defs>
  <g id="_レイヤー_1-2" data-name="レイヤー 1">
    <g>
      <circle class="cls-2" cx="126.37" cy="126.37" r="126.37"/>
      <g>
        <path class="cls-3" d="M96.6,142.62c-.77-.64-2.12-.46-3.03-.31-1.22.21-2.32.37-3.58.41.64-.28,1.06-1.3,1.38-1.87.44-.79.77-1.64.97-2.52.25-1.11.42-2.27.41-3.41,0-.81-.05-2.28-1.09-2.45-1.47-.23-1.07,1.83-1.05,2.66.05,1.97-.36,4.16-1.64,5.72-1.09,1.34-3.36,1.77-4.76.62-1.15-.95-1.37-2.65-1.47-4.04-.07-.95.3-3.44-1.04-3.61-1.75-.23-1.04,3.25-.93,4.16.21,1.88.71,3.88,2.25,5.12-1.58-.18-3.56.08-5.11.45-1.53.37-2.97,1.27-3.76,2.67-.4.72-.48,1.56-.95,2.24-.39.56-.58.83-.55,1.55.04,1.29.5,2.55,1.52,3.39.52.43,1.16.75,1.82.91.92.21,1.46-.07,2.27-.39.51-.2,1.11-.16,1.46-.64.3-.42.29-1.02.32-1.51.09-1.23.46-2.21,1.74-2.6.66-.2,1.37-.2,2.05-.24.47-.03.94-.06,1.41-.07.15,0,1.51.1.79-.04,1.87.22,3.74.28,5.61.18,1.49-.08,2.99.41,4.44-.05,1.45-.46,1.66-1.26,1.58-2.68-.06-1.18-.05-2.83-1.06-3.66Z"/>
        <path class="cls-3" d="M119.23,144.63c.11.07.24.13.37.16-.22.28-.39.61-.37.98.01.33.27.65.25.88-.02.24-.27.43-.24.73.03.34.25.64.55.79.61.32,1.43.03,2.06-.07.91-.14,1.84-.23,2.76-.3,3.97-.3,7.96-.33,11.94-.53,3.56-.18,7.16-.49,10.72-.15,1.52.14,3.12.2,4.61.56,1.45.35,1.42,1.7.42,2.59-.83.75-1.91,1.27-2.92,1.73-.53.24-1.21.42-1.58.91-.09.12-.19.74-.25.78-.29.23-1.32.12-1.69.14-.79.04-2.63.33-1.69,1.58.57.75,1.99.55,2.78.46,2.09-.24,13.96-1.88,11.67-8.59-1.3-3.82-5.99-4.67-9.49-5.08-4.46-.53-8.99-.08-13.47.04,3.91-3.18,1.14-10.78-3.98-10.4-2.19.16-4.51,1.33-5.66,3.26-.64,1.09-.78,2.31-.54,3.54.15.75.39,1.47.74,2.15.35.69.89,1.15,1.29,1.78-2.01.11-4.03.21-6.05.13-.68-.03-1.61-.15-2.21.27-.55.39-.61,1.24-.02,1.64ZM127.42,137.01c.57-2.17,3.21-3.56,5.38-3.14,1.95.38,2.79,2.9,2.7,4.64-.11,2.33-3.06,3.8-5.21,3.39-1.93-.37-3.36-3.06-2.87-4.89Z"/>
        <path class="cls-3" d="M126.74,117.94c.68-.98-.72-1.88-1.36-2.4-.92-.76-1.4-1.67-.93-2.87.56-1.42,1.95-1.9,3.36-2.08,1.21-.15,3.01.17,4.12-.41.54-.28.75-.9.4-1.43-.38-.57-.97-.43-1.56-.37-1.2.11-2.41.16-3.59.37-2.46.43-4.61,1.8-4.9,4.49-.16,1.55.63,2.76,1.66,3.83.6.62,2.02,1.99,2.8.88Z"/>
        <path class="cls-5" d="M37.65,126.65c.57.98,1.59,1.7,2.61.88.38-.31.63-.76.98-1.08.07-.1.13-.2.17-.32.13.05.26.08.4.1.31-.04.67.02.99.01,1.59-.04,3.21.03,4.79-.09.82-.06,2.09-.52,1.38-1.61-.4-.61-.96-.32-1.54-.43-.26-.05-.51-.09-.39-.53.08-.29.1-.16.31-.37.17-.16.33-.19.5-.38-.04-.25.04-.37.23-.35.14,0,.28-.05.4-.13.4-.25.55-.77.37-1.2-.42-1.01-1.95-.73-2.81-.73-.81,0-1.63,0-2.44,0-.65,0-1.39-.11-2.02.09-.13-.94-.56-2.12-1.49-2.55-.48-.23-4.27,0-2.47,8.67Z"/>
        <path class="cls-1" d="M49.75,128.61c.39-.07,11.37-.5,14.12-.6-3.38,2.85-3.59,9.43-3.21,13.42.42,4.34,2.44,8.15,5.53,11.17,3.25,3.18,8.17,6.3,12.72,7.09,5.06.87,10.66-.58,15.78-.61,5.59-.04,42.99-2.24,47.65-2.4,4.78-.15,7.57-2.97,10.49-6.42,6.77-8.01,8.37-20.64-.88-27.59,2.07.34,19.66.7,29.77,5.81,8.66,4.38,18.44,7.51,21.55,17.49.65,2.07,1.65,3.45,4.02,2.29,2.05-1,9.51-4.39,8.1-34.92-.38-8.34-5.18-25.91-11.63-26.57-1.54-.16-2.82,2.1-3.51,3.36-1.17,2.16-2.11,4.36-3.63,6.33-5.7,7.38-15.56,13.4-24.7,15.17-11.07,2.14-22.32,3.74-33.59,4.17-10.65.41-21.36.64-32.05,1.32-12.71.8-44.37,1.15-47.47,1.2-2.53.04-5.73-.32-8.19.3-3.67.94-5.55,9.25-.88,9.98ZM69.92,133.11c1.04-2.23,2.59-4.29,4.79-5.47,2.65-1.42,6.33-1.06,9.28-1.35,6.56-.64,13.15-1.22,19.72-1.69,6.78-.49,13.58-.66,20.37-.9,6.42-.23,12.6-1.04,18.6,1.69,4.99,2.27,7.36,9.46,6.13,14.54-1.47,6.11-7.07,8.28-12.76,9-13.37,1.7-26.68,1.81-40.13,2.11-3.63.08-7.26.06-10.85.66-3.47.57-6.42-.16-9.6-1.7-6.31-3.06-8.43-10.71-5.56-16.89Z"/>
        <g>
          <path class="cls-1" d="M113.4,146.72c.08-4.85.22-9.7.04-14.55-.21-5.33-.62-10.64-.83-15.97-.05-1.34.46-4.56-1.21-5.17-.42-.16-.77-.01-.99-.44-.14-.27,0-.78,0-1.07,0-1.42-.14-2.84-.22-4.26.87.04,2.94-.37,1.71-1.65-.82-.85-2.56-.37-3.58-.37-1.07,0-2.45-.11-3.41.45-.47.28-.73.79-.49,1.32.39.88,1.36.52,2.07.41-.51.59-.16,1.9-.13,2.62.03.59.04,1.19.09,1.78.05.58.13.5-.36.76-.28.14-.51.31-.76.49-.28.21-.52.31-.81.5-.58.38-.63,1.22-.66,1.85-.01.24,0,.49,0,.73,0-.61-.02-1.25-.2-1.82-.33-1.02-1.08-1.15-2.05-1.22.29.06-.43.05-.6-.09-.31-.27-.27-.99-.29-1.34-.06-1.34-.11-2.68-.19-4.02.46,0,1.03-.02,1.35-.42.39-.5.2-1.14-.3-1.45-.52-.33-1.15-.15-1.72-.12-.68.04-1.33-.08-2-.08-.85,0-3.14-.06-3.6.85-.23.45-.06,1.06.38,1.33.55.34,1.29.04,1.87-.04-.45.69-.04,2.26,0,3.03.04.73.47,2.14.08,2.81-.33.55-1.15.15-1.67.46-.65.38-.54,1.22-.51,1.86.23,4.92.58,9.83.69,14.76.11,5.07.05,10.14,0,15.21-.04,4.91.05,17.41.09,18.74.02.83-.13,2.02.41,2.72.52.67,8.1.18,8.37-.31.38-.69.29-1.58.29-2.34,0-1.04,0-2.07,0-3.11-.02-4.21-.02-8.42.04-12.63.07-4.23.13-8.47.09-12.7-.03-4.2-.34-8.38-.47-12.58-.06-1.92,0-3.83-.02-5.75.05,1.19.15,2.39.22,3.56.13,2.3.27,4.6.4,6.91.57,9.78.36,19.52.43,29.3.02,2.43.28,4.87.25,7.29-.01.78-.51,1.85-.05,2.54.57.85,6.49.35,7.22.23,1.9-.32,1.25-3.1,1.23-4.45-.07-4.85-.26-9.7-.19-14.55Z"/>
          <path class="cls-1" d="M122.34,104.79c.45-.63.09-1.61-.74-1.61-1.16,0-2.3.24-3.46.24-1.13,0-2.41-.25-3.53-.07-.74.11-1.33.88-.76,1.52.23.26.62.41.96.47.25.05.72-.08.89.11.27.3.04,1.4.03,1.78-.03.85.08,1.68.12,2.53.05,1-.73.73-1.48.83-.9.13-1.1.85-1.21,1.66-.27,2.05-.16,4.25-.13,6.31.03,2.69.18,5.38.35,8.07.33,5.38.52,10.75.55,16.14.03,5.28.02,10.55-.02,15.83-.01,1.23,0,2.46-.02,3.7,0,.87-.17,1.99.48,2.69.69.74,7.65.45,7.83-.96.13-1-.19-2.25-.21-3.28-.02-1.31-.05-2.62-.03-3.93.11-5.34-.04-10.68.08-16.02.14-6.06.12-12.08-.02-18.14-.07-2.95-.22-5.92-.03-8.87.06-.84.34-1.92-.09-2.71-.45-.84-1.71-1.06-2.59-.98-.04-1.55-.1-3.1-.2-4.65.91,0,2.62.22,3.22-.63Z"/>
        </g>
        <path class="cls-4" d="M214.23,114.41c-.3-6.16-1.74-12.46-3.86-18.24-.98-2.68-2.31-5.73-4.56-7.59-.72-.59-1.77-1.15-2.72-1.14-1.01.01-1.78,1.12-.8,1.85.53.39,1.28.24,1.86.56.33.19.61.49.86.77,1.07,1.22,1.95,2.65,2.66,4.12-.03-.06-.06-.12-.1-.18-.05.07.32.7.36.8.32.74.59,1.5.84,2.26.56,1.66,1.03,3.35,1.5,5.04.94,3.38,1.63,6.77,1.87,10.28.51,7.18-.19,14.44-1.44,21.51-.48,2.71-.84,5.53-1.95,8.08-.53,1.23-1.25,2.38-2.24,3.29-.41.38-.9.82-1.39,1.08-.47.25-1.05.15-1.44.57-.83.89.16,1.85,1.14,1.74,1.28-.14,2.6-1.51,3.46-2.37,2.25-2.24,3.02-5.34,3.66-8.35,1.69-7.84,2.67-16.05,2.27-24.07Z"/>
      </g>
    </g>
  </g>
</svg>