<?xml version="1.0" encoding="UTF-8"?>
<svg id="_レイヤー_2" data-name="レイヤー 2" xmlns="http://www.w3.org/2000/svg" viewBox="0 0 252.75 252.75">
  <defs>
    <style>
      .cls-1 {
        fill: #e4b959;
      }

      .cls-2 {
        fill: #fff;
      }

      .cls-3 {
        fill: #cd9e6c;
      }

      .cls-4 {
        fill: #f6e3c6;
      }

      .cls-5 {
        fill: #e7d193;
      }
    </style>
  </defs>
  <g id="_レイヤー_1-2" data-name="レイヤー 1">
    <g>
      <circle class="cls-2" cx="126.37" cy="126.37" r="126.37"/>
      <g>
        <path class="cls-1" d="M95.04,125.53c-.53-.05-.35-.13-.7-.48-.19-.19-.39-.23-.64-.29-.77-.17-1.7-.03-2.47.05-.35.04-.79.2-1.14.18-.53-.02-.14.15-.47-.27-.4-.51-.69-1.29-1.06-1.86-.79-1.24-1.58-1.62-2.85-.81-.52.33-.99.37-1.43.96-.45.6-.75,1.33-.92,2.05-.45,1.99-.05,4.96,1.5,6.45.77.73,1.91,1,2.9.55.52-.24.93-.65,1.25-1.11.42-.6.47-1.31,1.16-1.6-.07.02-.13.06-.19.09.15-.23,1.3-.34,1.51-.36,1.09-.11,2.23-.15,3.29-.47.3-.09.62-.2.8-.48.14-.23.04-.41.11-.62.07-.19.21-.3.3-.51.36-.86-.21-1.26-.97-1.5Z"/>
        <path class="cls-3" d="M166.67,128.32c1.42.52,2.81,1.16,4.08,1.98,1.2.78,2.18,1.86,3.38,2.64.79.52,2.28-6.15,1.55-6.67-1.95-1.39-6.62-3.63-8.94-4.14-2.57-.56-4.85-1.27-7.5-.88-2.61.39-5.3.93-7.8,1.79-2.19.76-4.41,1.64-6.52,2.6-2.05.92-4.16,2.1-5.54,3.93-.75,1-1.08,2.1-1.48,3.27-.42,1.25-.73,2.49-.87,3.8-.27,2.5-.26,5.28.25,7.74.1.49.32,12.81.24,15.63-.16,5.45-.64,14.98-.36,20.43.04.8,3.99-2.22,4.13-2.46.26-.44.4-43.61,1.37-44.53,6.84-6.49,18.18-7.29,24.02-5.14Z"/>
        <path class="cls-3" d="M176.35,190.23c-.66-.3-1.33-.08-1.97-.26-.25-.07-.43-.29-.72-.34-.29-.05-.61,0-.9.03-1.51.14-3.02.21-4.54.32-3.17.23-6.32.33-9.5.36-2.89.03-5.58-.33-7.88-2.21-.49-.4-1.06-.84-1.42-1.35-.44-.63-.45-1.58-.6-2.34-.15-.75-5.53-.25-5.49.53.05,1.16.49,2.26,1,3.28.88,1.75,1.93,3.78,3.67,4.81,1.76,1.04,3.93,1.48,5.94,1.64,4.58.38,9.29-.06,13.86-.4,2.36-.17,4.78-.12,7.12-.48.88-.14,1.6-.51,1.99-1.35.38-.81.35-1.82-.56-2.24Z"/>
        <path class="cls-1" d="M86.56,51.81c3.69,1.48,7.37,3.12,10.11,6.1,2.89,3.13,4.96,7.01,6.41,10.99,3.12,8.6,4.27,18.16,4.99,27.23.75,9.44,1.26,18.72,1.01,28.21-.13,4.86-.79,24.32-.63,29.19.32,9.51.24,19.11,1.05,28.59.76,8.85,1.73,18.8,5.21,27.03,3.23,7.64,7.9,14.02,15.35,17.94,7.67,4.03,17.88,4.07,26.35,3.78,5.05-.17,10.32-.58,15.07-2.42,2.24-.86,4.33-2.06,6.22-3.53,1.78-1.39,9.81-11.27,10.65-14.9.61-2.63.57-5.41,1.22-8.01.06-.16.05-.1-.04.17.34-2.45,1.02-12.46.93-15.01-.21-5.59,3.33-65.53-.83-80.49-2.82-10.16-19.63-22.25-36.88-16.97-5.28,1.62-10.63,4.39-14.65,8.34.01-3.24.8-6.4.82-9.63.02-3.06.61-5.95,1.27-8.93,1.38-6.22.75-11.72,3.13-17.68,6.17-15.47,37.8-19.28,39.69-21.18,1.66-1.66-5.78-5.89-7.28-6.86-21.79-14.25-55.52-13.29-70.93-9.76-8.65,1.98-17.37,4.09-25.34,7.99-3.96,1.94-7.79,4.23-11.39,6.78-1.92,1.36-7.04,4.67-7,7.39.03,1.69,2.32,1.89,3.65,1.91,2.33.04,4.59-.24,6.94,0,5.12.5,10.12,1.83,14.89,3.74ZM132.81,158.96c.08-7.19.73-14.37,1.27-21.54.5-6.69,1.04-13.64,2.24-20.24.48-2.65,3.3-5.24,5.08-7.16,1.99-2.14,4.21-4.08,6.63-5.71,2.73-1.84,5.45-3.19,8.73-3.24,24.34-.33,22.12,23.32,22.23,29.69.23,13.83-.98,27.64-1.9,41.43-.47,7.01-.76,14.05-1.5,21.03-.3,2.88-.79,6.05-2.22,8.62-1.2,2.15-4.13,4.03-6.31,5.19-5,2.68-12.43,2.19-17.84,1.42-4.65-.66-9.59-2.68-12.18-6.81-3.4-5.41-3.36-12.7-3.75-18.85-.51-7.93-.58-15.89-.48-23.83Z"/>
        <path class="cls-5" d="M186.58,189.08c-.04-1.64-.06-3.35-.58-4.92-.54-1.65-1.68-3-2.9-4.19-1.36-1.34-2.73-2.65-4.07-4-.48-.48-.96-.96-1.42-1.46.02-.41,0-.83-.02-1.13-.04-1.29-.03-2.57.04-3.86.2-3.97.38-7.93.5-11.91.12-3.94.5-7.86.7-11.79.23-4.45.27-8.91.41-13.36.02-.66.03-1.33.04-1.99,0-.05,0-.11,0-.16,0,0,0-.01.01-.02.36-.78.25-1.77.15-2.65,0-.1,0-.21.02-.31.03-.42.1-.95-.06-1.38.12-1.5.1-3.01.13-4.55.01-.93.23-2.03-.04-2.93-.12-.42-.45-.68-.61-1.07-.16-.4-.16-.86-.26-1.27-.56-2.37-2.12-4.6-4.01-6.1-.29-.23-.59-.42-.9-.59-.68-.79-1.9-2.03-2.9-1.49-.36-.13-.73-.22-1.13-.24-.73-.29-1.52-.45-2.38-.44-.94.02-2.16-.25-3.02.23,0,0,0,0-.01,0-2.3.37-4.57,1.16-6.46,2.53-1.08.78-1.97,1.75-2.82,2.77-.26.31-.67.7-1.01,1.12-.03-.02-.06-.05-.09-.07-.73-.54-1.61-.78-2.5-.83-.56-.14-1.14-.2-1.71-.14-1.53.17-3.13.68-4.24,1.79-.13-.36-.27-.72-.45-1.06-.95-1.8-2.93-3.63-5.07-3.82-.94-.31-2.01-.41-2.69-.36-1.29.1-2.52.52-3.52,1.24-1.43.63-2.8,1.81-3.67,3.09-.66.97-.93,2.02-1.12,3.12-.46-.28-.95-.52-1.4-.72-3.04-1.34-6.56-2.01-9.87-1.68-1.42.14-2.84.21-4.18.72-1.4.53-2.67,1.33-3.84,2.26-2.19,1.74-4.08,4.37-6.83,5.22-2.69.83-5.75.29-8.35,1.4-.19.08-.33.2-.45.33-.63.35-1.09.9-1.15,1.8-.04.64.08,1.14.3,1.54.07.17.16.34.29.5.47.59,1.22.82,1.98.87.39.07.79.12,1.2.14.3.02.63-.06.9-.21.84.07,1.66-.11,2.5-.21.95-.12,1.92-.07,2.86-.26,1.71-.35,2.96-1.63,4.29-2.67.51-.66,1.66-1.16,2.3-1.66,1.31-1.03,2.58-2.06,4.11-2.77,3.35-1.56,6.94-1.99,10.41-.66,1.22.47,2.69.96,3.66,1.88-.09.8-.03,1.71-.06,2.24-.08,1.67-.09,3.35-.07,5.02.04,3.29.15,6.58.08,9.88-.06,3.33-.37,6.65-.47,9.97-.1,3.27-.1,6.53-.12,9.8-.03,3.23-.05,6.45-.02,9.68.03,2.89.1,5.89,1.35,8.55.58,1.23,1.41,2.41,2.63,3.07,1.11.6,2.41.73,3.65.84.85.07,1.71.09,2.57.13-3.71.97-6.53,4.72-7.12,8.36-.01.09-.02.18-.04.27-.03.14-.08.28-.1.43-.17.96-.19,1.92-.14,2.88.03,2.14.46,4.29,1.67,5.96.87,1.2,2.15,1.93,3.53,2.4.04.1.09.21.17.31.99,1.34,4.26,1.39,5.71,1.51,3.53.28,7.12.08,10.66.09,3.62,0,7.23,0,10.85-.15,3.64-.16,7.26-.52,10.88-.89,1.44-.15,3.35.09,4.64-.57,1.33-.68,2.75-1.07,3.97-1.97,2.15-1.59,3.63-3.88,4.28-6.47.41-1.61.47-3.28.43-4.94ZM170.17,168.44c-1.21-.41-2.49-.44-3.76-.44-2.78,0-5.56-.11-8.33-.11-2.33-.01-4.63.28-6.96.46-1.04.08-3.19.16-3.1,1.67-.39-.16-.8-.28-1.22-.38-.02-.98-.04-1.97-.06-2.95.45-.15.9-.29,1.35-.43-.09,1.62,1.36,1.63,2.67,1.6,1.83-.04,3.66-.12,5.48-.17,3.98-.11,7.97-.08,11.95-.09,1.09,0,2.59.21,3.53-.47,1.17-.85.78-3,.8-4.25,0-.61.11-1.38-.32-1.89-.43-.51-1.23-.52-1.84-.56-1.76-.1-3.5-.19-5.26-.21-4.53-.05-9.06-.03-13.6-.03-.74,0-2.49-.31-3.09.25-.57.52-.21,1.73-.24,2.41-.51-.06-1.03-.11-1.54-.15-.04-1.27-.07-2.55-.12-3.82.63-.18,1.27-.37,1.9-.56-.08.54-.27,1.1.26,1.3.73.27,2.12-.17,2.88-.26,1.91-.21,3.84-.26,5.76-.29,3.81-.06,7.67-.15,11.47.02,1.23.05,2.89.23,3.65-.96.63-1,.53-2.38.54-3.52.02-1.76-.52-2.55-2.32-2.86-1.91-.33-3.87-.31-5.8-.31-3.4,0-6.81.1-10.2.41-1.5.14-3.01.36-4.49.64-.35.07-1.14.16-1.39.49-.25.33-.13,1.08-.15,1.47-.78-.2-1.56-.31-2.34-.42-.02-.34-.03-.68-.05-1.03-.08-1.37-.19-2.74-.32-4.11.23-.04.46-.09.7-.13.56-.1,1.12-.22,1.69-.27.52-.05.58.04.61.59.04.8-.52,1.79.46,2.05.82.22,1.76.03,2.59.02,2.75-.05,5.5.09,8.25-.01,2.77-.1,5.53-.46,8.3-.55,1.04-.03,2.81.22,3.59-.67.58-.67.52-1.74.55-2.57.03-1.16.11-2.53-.24-3.65-.11-.36-.35-.57-.64-.71-.17-.45-.44-.88-.76-1.24.06-.33.01-.71-.12-1-.54-1.19-1.69-1.95-2.95-2.32-.15-.26-.43-.44-.76-.55-1.29-.41-2.72-.1-4.03-.04-.4.02-.81.06-1.22.1-.65-.16-1.49-.07-2.03-.23-1.02-.3-1.71-.95-2.18-1.89-.05-.11-.11-.23-.16-.35-.07-.49-.19-.99-.23-1.49-.08-.91-.12-1.83-.14-2.75-.03-1.23-.03-2.46-.02-3.7,0-.23,0-.45.02-.68.07-.24.11-.51.13-.75.05-.66-.01-1.32-.04-1.98.01-.14.02-.27.03-.39.08-1.13.05-2.26.15-3.39.2-2.16,1.04-4.05,2.72-5.47,1.65-1.39,3.83-1.96,5.92-2.29.53-.08,1.04-.13,1.54-.13.82.21,1.64.4,2.41.9.97.63,1.7,1.53,2.29,2.51.37.62.91,1.42,1.06,2.15-.03-.08-.05-.15-.08-.23.15.38.29.76.41,1.15.01.93.05,1.86.1,2.79.16,3.19.45,6.39.45,9.59,0,.21,0,.48.03.76-.44,5.21-.99,10.43-1.1,15.66-.06,2.59-.03,5.19-.06,7.79-.03,2.57-.21,5.14-.25,7.71-.03,2.29.05,4.59-.04,6.88-.21.02-.42.06-.64.11.2-1.27-1.15-1.5-2.05-1.81ZM139.13,198.58c-.75-.31-1.51-.54-2.19-1.08-1.76-1.41-2.35-3.83-2.15-5.99.12-1.29.45-2.56.85-3.8.39-.55.82-1.06,1.3-1.54.48-.24.98-.41,1.48-.53-.79,4.49-.19,9.46,2.84,12.95-.16,0-.32,0-.48,0-.53,0-1.09-.02-1.64,0ZM135.69,176.86c-1.13-.07-1.81-.17-2.31-1.29-.25-.56-.44-1.14-.6-1.73-.02-.75.02-1.46,0-1.92-.16-5.01.05-10.04.07-15.05.02-5.13.03-10.26.09-15.4.06-5.64.01-11.28.11-16.92.02-1.42.08-2.85.24-4.26.09-.84.09-2.13.52-2.98.33-.2.65-.42,1.01-.57,1.22-.48,2.83-.69,4.09-.27.62.2,1.17.57,1.66,1,.04.05.07.1.1.15.12.7.19,1.4.23,2.1.15,2.52.1,5.06.07,7.58-.06,5.4.03,10.8.13,16.21-1.64-.23-3.8-.74-5.12.56-1.41,1.38-1.5,4.49.23,5.67,1.31.89,3.27.6,4.99.21.02,1.1.03,2.2.04,3.3-.68-.14-1.37-.26-2.06-.35-1.24-.15-2.39-.02-2.97,1.22-.41.87-.5,1.97-.36,2.92.39,2.73,3.02,3.13,5.41,2.94,0,.42,0,.84,0,1.27,0,.29,0,.58-.01.88-.91-.17-1.82-.33-2.75-.33-1.21-.01-2.23.29-2.67,1.5-.3.83-.35,1.87-.13,2.73.61,2.34,3.23,2.44,5.48,2.12,0,.26,0,.53,0,.8-1.41-.15-3.08-.19-4.09.55-2.04,1.49-1.62,6.1.95,6.76.78.2,1.61.12,2.45-.06-.49.24-1,.45-1.51.69-.16.07-.34.17-.5.29-.93-.12-1.86-.24-2.8-.3ZM146.95,144.64c-.02-.15-.04-.29-.04-.41-.22-5.49-.02-10.99,0-16.48.01-2.83-.28-5.97.74-8.67.06-.17.15-.33.23-.49.13-.09.25-.19.38-.27.12-.07.24-.14.36-.21.27,0,.56-.03.8-.1,1-.26,1.89-.27,2.67.52.71.72.77,1.73,1.12,2.6.16,1.55.25,3.1.3,4.66.06,1.95.09,3.9.1,5.84,0,.88-.14,1.79-.06,2.67-.06,1.76-.14,3.66.53,5.27,1.54,3.74,6.6,3.16,9.92,3.21,1.06.02,2.12,0,3.18-.04.03,0,.06,0,.08,0,.01.03.03.06.04.09-2.68.03-5.36.08-8.04.21-3.39.16-6.78.52-10.17.27-.05.65-.07,1.3-.1,1.95-.67-.24-1.35-.45-2.04-.64ZM170.53,191.23c-.19,1.88-.55,3.95-1.64,5.54-.14.2-.42.53-.69.91-2.1.17-4.19.36-6.28.59-2.61.28-5.15.24-7.77.25-1.05,0-2.1.02-3.15.04-1.9-.17-3.82-.43-5.42-1.56-.12-.1-.24-.19-.33-.28-.58-.54-1.14-1.11-1.54-1.8-.65-1.15-.96-2.61-1.17-3.99.33-.66-.15-1.55-.14-2.25.01-.95.51-2.09,1.15-2.79.25-.27.61-.5.9-.77.84-.03,1.68-.05,2.52-.06,3.81-.02,7.63.09,11.44.13,1.83.02,3.66.08,5.49.1.79.01,1.58.03,2.37.06.34.02.76.04,1.12-.04.79.37,1.86.67,2.49,1.22.38.34.46,1.01.56,1.5.22,1.05.19,2.13.08,3.19ZM155.73,115.1c-.06.11-.12.21-.18.32-.01-.02-.03-.03-.04-.05.07-.08.14-.16.2-.24,0-.01.02-.02.02-.03ZM180.48,193.64c-1.26,2.88-4.46,3.51-7.5,3.74,2.42-2.68,2.58-6.63,1.63-9.97-.52-1.84-1.28-3.87-2.63-5.26-.76-.78-1.74-1.25-2.81-1.43-.53-.09-1.01-.03-1.54-.04-.54-.02-1.06-.18-1.6-.17-.56-.16-1.21-.02-1.77.02-1.06.07-2.14.05-3.21.06-1.53.02-3.06.06-4.59.11-2.24-.03-4.49,0-6.72.21-.88.08-1.76.13-2.64.17-.01-.9-.05-1.79-.08-2.69-.04-1.29-.07-2.57-.1-3.86.23-.05.47-.08.7-.08.65.02.79.52,1.32.78.81.4,2.1.25,2.98.26,2.22.03,4.43-.04,6.64-.14,2.46-.11,4.91-.21,7.38-.22,1.01,0,2.02-.02,3.03.03.75.03,1.76.17,2.41-.32,1.04,2.04,2.76,3.63,4.54,5.03,1.6,1.25,3.2,2.44,3.91,4.42,1.01,2.81,1.91,6.48.66,9.36Z"/>
        <path class="cls-4" d="M180.76,41.65c.43-.24.89-.42,1.44-.49-.04-.13-.1-.25-.19-.36-6.39-6.71-19.06-15.19-43.09-17.43-14.3-1.33-26.06.2-26.2.22-38.78,6.11-50.43,22.53-50.91,23.23-.14.2-.18.44-.16.67.39.07.78.21,1.18.46.07.04.12.09.18.13.02,0,.04,0,.06,0,.08,0,.14.02.22.02.06-.05.12-.08.17-.15.11-.16,11.64-16.4,49.55-22.38.45-.06,45.64-5.81,67.19,16.24.19-.06.38-.12.56-.16Z"/>
      </g>
    </g>
  </g>
</svg>